<svg id="레이어_1" data-name="레이어 1" xmlns="http://www.w3.org/2000/svg" viewBox="0 0 675 270"><defs><style>.cls-1{fill:#0f3089;}.cls-2{fill:none;}</style></defs><path class="cls-1" d="M252.24,158.76C278.4,127.88,287,92.19,271.53,79.07c-11.83-10-34.31-4-55.92,13.19v42.3h-11V102.05l-.06,0V91.65H175.25V107h24.64q-1.9,2.09-3.77,4.27c-26.16,30.88-34.79,66.56-19.29,79.68,10.89,9.23,30.81,4.84,50.77-9.3v-43h11v45h29.33V168.32H243.37C246.4,165.34,249.37,162.16,252.24,158.76Z"/><path class="cls-1" d="M294.73,101.09a7.21,7.21,0,0,1-2.1-.22,4.35,4.35,0,0,1-1.38-.81l-3-3a1.07,1.07,0,0,1-.18-1.42c.31-.48.87-.57,1.67-.26a24.57,24.57,0,0,0,2.95.81,19.17,19.17,0,0,0,3.6.29h21.91c1.37,0,2.17.42,2.38,1.13a4,4,0,0,1,0,2.18q-2.36,7.78-12.42,15.82A63.29,63.29,0,0,1,287.48,127c-1.14.35-2,.2-2.42-.45s-.22-1.28.78-1.88a62.34,62.34,0,0,0,15.61-12.75q5.73-6.76,6.87-10.8Zm24,23.68a28.42,28.42,0,0,1,13.59,3.34q6.25,3.34,6.26,9.76t-6.26,9.76a29.32,29.32,0,0,1-27.18,0q-6.27-3.34-6.26-9.76t6.26-9.76A28.37,28.37,0,0,1,318.78,124.77Zm-9.54,13.1a7.55,7.55,0,0,0,2.92,6.13,10.32,10.32,0,0,0,13.16,0,7.47,7.47,0,0,0,3-6.13,7.37,7.37,0,0,0-3-6.13,10.56,10.56,0,0,0-13.16,0A7.44,7.44,0,0,0,309.24,137.87Zm31.45-33.21,8-.52c1.47-.08,2.21.84,2.24,2.76s-.73,2.88-2.24,2.88h-8v10.64a5.36,5.36,0,0,1-1.43,3.63,4.49,4.49,0,0,1-3.55,1.63h-3.06a2.06,2.06,0,0,1-1.35-.36,1.47,1.47,0,0,1-.43-1.2V97.4A3,3,0,0,0,329,94.48L325.82,93c-.66-.35-.89-.79-.68-1.33a1,1,0,0,1,1-.75l13.09,1.3c.76.09,1.19.29,1.29.62a3.08,3.08,0,0,1,.14.68Z"/><path class="cls-1" d="M391.2,115.3q6.46-.06,10.88-.39a14.72,14.72,0,0,0,8.11-3.18V97.4a3,3,0,0,0-1.92-2.92L405.14,93c-.66-.35-.89-.79-.68-1.33a1,1,0,0,1,1-.75l13.09,1.3c.75.09,1.18.29,1.28.62a3.08,3.08,0,0,1,.14.68v9.21l8-.52c1.47-.09,2.22.83,2.24,2.76s-.72,2.88-2.24,2.88h-8V119a5.35,5.35,0,0,1-1.42,3.63,4.55,4.55,0,0,1-3.56,1.62H412a2.06,2.06,0,0,1-1.35-.36,1.47,1.47,0,0,1-.43-1.2v-6.87a14.36,14.36,0,0,1-6.86,3,63.39,63.39,0,0,1-10.35.68H375.33c-3,0-4.78-.63-5.37-1.91a7.92,7.92,0,0,1-.89-3.14V102.33a3,3,0,0,0-1.31-2.79c-.88-.52-1.75-1-2.6-1.56s-1.26-.88-1.07-1.36a1.27,1.27,0,0,1,1.21-.78L378,97.14c.75.09,1.17.31,1.24.68s.11.57.11.62v14.2c.09,1.21.41,2,1,2.24a4.76,4.76,0,0,0,2.17.42Zm27.53,29.64a3.94,3.94,0,0,1-1.46,3.24,5.74,5.74,0,0,1-3.52,1H382.8a6,6,0,0,1-3.38-1.07,3.69,3.69,0,0,1-1.6-3.28v-11a4.06,4.06,0,0,0-.53-2.23,4.61,4.61,0,0,0-1.31-1.33,13.68,13.68,0,0,0-1.79-.91c-.61-.26-.92-.52-.92-.78a2.05,2.05,0,0,1,.18-.81c.12-.28.41-.42.89-.42h43a1.65,1.65,0,0,1,1.1.29,1.33,1.33,0,0,1,.32,1Zm-30.66-1.82a2,2,0,0,0,.71,1.66,3,3,0,0,0,1.85.55h15.29a2.79,2.79,0,0,0,1.82-.62,2,2,0,0,0,.75-1.59v-11.8H388.07Z"/><path class="cls-1" d="M479.2,122.82v22.51a5.21,5.21,0,0,1-1.5,3.63,4.73,4.73,0,0,1-3.62,1.62h-2.71a2.08,2.08,0,0,1-1.35-.36,1.45,1.45,0,0,1-.43-1.2v-26.2l-20.34.07a6.19,6.19,0,0,1-2.28-.23,5.2,5.2,0,0,1-.92-.81l-2.28-3c-.43-.74-.43-1.3,0-1.69a1.44,1.44,0,0,1,1.71-.07,12.74,12.74,0,0,0,2.91.94,32.64,32.64,0,0,0,4.13.17l32.87-.07c.38-1.77.74-4.41,1.1-7.91A89.58,89.58,0,0,0,487,100H456.43a7.91,7.91,0,0,1-2.17-.26,3.35,3.35,0,0,1-1-.78l-2.06-2.53c-.43-.73-.44-1.28,0-1.65a1.4,1.4,0,0,1,1.67,0,8.86,8.86,0,0,0,2.85.81c.66,0,2,0,4.05,0h35.93a2.06,2.06,0,0,1,2,1,4.08,4.08,0,0,1,.39,2.07,51.33,51.33,0,0,1-2.6,11.71,28.17,28.17,0,0,1-4,7.75h11.31c2.14,0,3.2.78,3.2,2.34s-1.06,2.33-3.2,2.33Z"/><path class="cls-1" d="M309.21,176l0-1.94a5.76,5.76,0,0,1-2,1.65,6.37,6.37,0,0,1-3.22.78,8.51,8.51,0,0,1-6.66-2.84,11.82,11.82,0,0,1,0-14.58,8.48,8.48,0,0,1,6.71-2.82,8.05,8.05,0,0,1,6.18,2.26,9.57,9.57,0,0,1,2.54,4.21l-3.83,0a6.1,6.1,0,0,0-1.48-2.16,4.39,4.39,0,0,0-3.27-1.14,4.93,4.93,0,0,0-4.16,1.94,8.11,8.11,0,0,0-1.47,5,8.23,8.23,0,0,0,1.47,5.06,4.87,4.87,0,0,0,4.16,2,4.16,4.16,0,0,0,3.58-1.57,8.41,8.41,0,0,0,1.51-3h-4.85v-2.87h8.45l0,10.08Z"/><path class="cls-1" d="M318.33,176h-3.6l7.7-19.26h4.05L334.2,176h-3.64l-1.75-4.35h-8.74Zm6.14-15.32-3.17,7.9h6.28Z"/><path class="cls-1" d="M348,176l-8-13.71L339.94,176H336.4V156.78h4.21l8.13,13.71V156.78h3.51V176Z"/><path class="cls-1" d="M370,176l0-1.94a5.66,5.66,0,0,1-2,1.65,6.36,6.36,0,0,1-3.21.78,8.52,8.52,0,0,1-6.67-2.84,11.86,11.86,0,0,1-.05-14.58,8.48,8.48,0,0,1,6.72-2.82A8.07,8.07,0,0,1,371,158.5a9.53,9.53,0,0,1,2.53,4.21l-3.83,0a6,6,0,0,0-1.48-2.16,4.39,4.39,0,0,0-3.27-1.14,4.94,4.94,0,0,0-4.16,1.94,8.11,8.11,0,0,0-1.47,5,8.23,8.23,0,0,0,1.47,5.06,4.88,4.88,0,0,0,4.16,2,4.16,4.16,0,0,0,3.58-1.57,8.45,8.45,0,0,0,1.52-3h-4.86v-2.87h8.45l0,10.08Z"/><path class="cls-1" d="M398.54,176l-8-13.71L390.5,176H387V156.78h4.21l8.12,13.71V156.78h3.52V176Z"/><path class="cls-1" d="M408.9,176h-3.6l7.7-19.26h4.05L424.77,176h-3.64l-1.75-4.35h-8.74ZM415,160.67l-3.17,7.9h6.28Z"/><path class="cls-1" d="M442.45,175.94V165.09l-4,10.88H434.4l-4-10.8v10.77h-3.47V156.75h4.21l5.32,15,5.2-15h4.21l0,19.19Z"/><path class="cls-1" d="M473.42,176l0-1.94a5.85,5.85,0,0,1-2,1.65,6.37,6.37,0,0,1-3.22.78,8.51,8.51,0,0,1-6.66-2.84,11.84,11.84,0,0,1-.06-14.58,8.5,8.5,0,0,1,6.72-2.82,8.05,8.05,0,0,1,6.18,2.26,9.57,9.57,0,0,1,2.54,4.21l-3.84,0a5.92,5.92,0,0,0-1.47-2.16,4.39,4.39,0,0,0-3.27-1.14,4.93,4.93,0,0,0-4.16,1.94,8,8,0,0,0-1.48,5,8.17,8.17,0,0,0,1.48,5.06,4.87,4.87,0,0,0,4.16,2,4.14,4.14,0,0,0,3.57-1.57,8.45,8.45,0,0,0,1.52-3H468.6v-2.87H477l0,10.08Z"/><path class="cls-1" d="M496.14,169.9a6,6,0,0,1-2.13,4.79,9.84,9.84,0,0,1-11.46,0,6.08,6.08,0,0,1-2.1-4.79l0-13.1H484V169a6.67,6.67,0,0,0,.71,3c.47,1,1.67,1.43,3.58,1.43s3.11-.48,3.6-1.44a6.64,6.64,0,0,0,.72-3l0-12.21h3.57Z"/><rect class="cls-2" width="675" height="270"/></svg>