<svg id="레이어_1" data-name="레이어 1" xmlns="http://www.w3.org/2000/svg" viewBox="0 0 675 270"><defs><style>.cls-1{fill:#fc0000;}.cls-2{fill:#fff;}.cls-3{fill:#333;}.cls-4{fill:none;}</style></defs><path class="cls-1" d="M268.09,171.26v14.9s44.72-12.93,44.72-56.55"/><path class="cls-1" d="M268.09,186.43a.3.3,0,0,1-.16-.05.27.27,0,0,1-.11-.22v-14.9a.27.27,0,1,1,.54,0v14.53A62.33,62.33,0,0,0,275,183.2,77,77,0,0,0,290.3,174c10.14-7.88,22.23-22,22.23-44.4a.29.29,0,0,1,.28-.28.28.28,0,0,1,.27.28,54.51,54.51,0,0,1-7,27.37,60,60,0,0,1-15.44,17.48,78.3,78.3,0,0,1-15.43,9.25,59.3,59.3,0,0,1-7,2.71Z"/><circle class="cls-1" cx="269.73" cy="129.61" r="46.04"/><path class="cls-2" d="M279.35,151a8.86,8.86,0,0,1-8.84-8.84V110.28a17,17,0,0,0,.17-2.37v-6a5.61,5.61,0,0,0-11.22,0v6a5.85,5.85,0,0,1-5.85,5.85h-5.32a5.61,5.61,0,1,0,0,11.21h5.31a16.78,16.78,0,0,0,5.7-1v18.2a20.06,20.06,0,0,0,20,20,5.61,5.61,0,1,0,0-11.22Z"/><circle class="cls-2" cx="279.93" cy="119.36" r="5.6"/><path class="cls-3" d="M420.34,115.2a5.49,5.49,0,1,0,0-11H394.47a5.49,5.49,0,0,0-5.49,5.49v29a5.48,5.48,0,0,0,5.49,5.48h25.87a5.49,5.49,0,0,0,0-11H400v-18Z"/><path class="cls-3" d="M377.51,156.06h-14V145.83a21.54,21.54,0,1,0-11,.08v15.63a5.49,5.49,0,0,0,5.49,5.49h19.45a5.49,5.49,0,0,0,0-11Zm-30.17-31a10.57,10.57,0,1,1,10.57,10.57h0A10.57,10.57,0,0,1,347.34,125Z"/><path class="cls-3" d="M445.82,119.12h-16.2a5.49,5.49,0,1,0-.32,11h11V144.8a5.49,5.49,0,0,0,11,.32V124.6a5.49,5.49,0,0,0-5.48-5.48Z"/><rect class="cls-4" width="675" height="270"/></svg>