<svg id="레이어_1" data-name="레이어 1" xmlns="http://www.w3.org/2000/svg" xmlns:xlink="http://www.w3.org/1999/xlink" viewBox="0 0 675 270"><defs><style>.cls-1{fill:none;}.cls-2{fill:#1b8480;}.cls-3{fill:#6ee0d6;}.cls-4{clip-path:url(#clip-path);}.cls-5{fill:#363636;}.cls-6{clip-path:url(#clip-path-2);}.cls-7{clip-path:url(#clip-path-3);}.cls-8{clip-path:url(#clip-path-4);}.cls-9{clip-path:url(#clip-path-5);}.cls-10{clip-path:url(#clip-path-6);}.cls-11{clip-path:url(#clip-path-7);}.cls-12{clip-path:url(#clip-path-8);}</style><clipPath id="clip-path"><path class="cls-1" d="M276.19,128.32c8.61,0,12.19-3.33,12.19-9.77,0-6-3.58-9.38-12.19-9.38h-8.7v19.21Zm-8.7,8.14v20.43h-9.42V100.94h19.1c12.91,0,20.63,6.17,20.63,17.68,0,11.35-7.64,17.84-20.63,17.84Z"/></clipPath><clipPath id="clip-path-2"><path class="cls-1" d="M329,139.67h-8.16c-5.08,0-7.15,1.79-7.15,5.38,0,3.75,2.76,5.29,6.91,5.29,5.28,0,8.45-1.63,8.45-8.7ZM320.19,133H329v-3.42c0-5.13-1.95-6.54-8-6.54-4.4,0-6.59.49-8.54,3.67l-6.26-4.4c2.93-4.8,7.34-6.76,15.36-6.76,10.4,0,16,3.27,16,14.09V157H329v-3.78c-1.95,3.18-4.47,4.48-9.43,4.48-8.94,0-14.46-4.52-14.46-12.65C305.1,136.32,311.51,133,320.19,133Z"/></clipPath><clipPath id="clip-path-3"><path class="cls-1" d="M371,139v-4.74c0-7-2.87-11.1-8.68-11.1s-8.77,4-8.77,11.1V139c0,6.37,2.46,11.35,8.77,11.35C368.88,150.33,371,145.35,371,139Zm0-22.7h8.68v40c0,12.57-7.2,16.82-17.86,16.82-7.4,0-12-1.88-15.24-7.1l6.14-4.41c1.81,2.7,4.35,4.1,8.86,4.1,6.58,0,9.42-2.78,9.42-9.39v-1.88q-3.3,3.44-9.88,3.43c-10.89,0-16.3-7.76-16.3-18.45v-5.57c0-11.77,6.39-18.3,16.3-18.3,4.43,0,7.63,1.31,9.88,3.6Z"/></clipPath><clipPath id="clip-path-4"><path class="cls-1" d="M395.76,132.06h15.66c-.33-5.94-2.8-9-7.8-9s-7.44,3.42-7.84,9Zm23.9,18.72c-2.87,5-7.47,6.92-14.69,6.92-11.74,0-18-7.56-18-18.39v-5.53c0-12,5.91-18.24,16.67-18.24,11.24,0,16.58,6.68,16.58,18.72v4.48H395.69v.16c0,6.35,2.48,11.31,8.95,11.31,4.84,0,6.81-1.46,8.45-4Z"/></clipPath><clipPath id="clip-path-5"><path class="cls-1" d="M460.6,118.26c-1.47-6.83-5.12-9.91-11.3-9.91-7.47,0-11.53,4.89-11.53,17v7.15c0,12,4.08,17,11.53,17,6.42,0,9.83-3.09,11.3-9.92h9c-1.87,12.6-9.18,18.13-20.32,18.13-12.51,0-20.95-7.56-20.95-25.21v-7.15c0-17.65,8.44-25.21,20.95-25.21,11.14,0,18.53,5.94,20.4,18.13Z"/></clipPath><clipPath id="clip-path-6"><path class="cls-1" d="M500.9,139.67h-8.16c-5.13,0-7.24,1.79-7.24,5.37,0,3.74,2.76,5.28,6.91,5.28,5.28,0,8.45-1.63,8.45-8.7ZM492.12,133h8.78v-3.42c0-5.13-1.95-6.54-8-6.54-4.39,0-6.58.49-8.53,3.67l-6.26-4.4c2.93-4.8,7.34-6.76,15.35-6.76,10.41,0,16,3.27,16,14.09V157H500.9v-3.77c-1.95,3.17-4.48,4.47-9.44,4.47-8.93,0-14.46-4.56-14.46-12.7C477,136.32,483.42,133,492.12,133Z"/></clipPath><clipPath id="clip-path-7"><rect class="cls-1" x="516.73" y="100.94" width="8.92" height="55.95"/></clipPath><clipPath id="clip-path-8"><rect class="cls-1" x="532.94" y="100.94" width="8.92" height="55.95"/></clipPath></defs><path class="cls-2" d="M165.12,128.92a32,32,0,0,1,32-32h-42.7V161h42.7A32,32,0,0,1,165.12,128.92Z"/><rect class="cls-3" x="133.14" y="96.89" width="21.31" height="64.06"/><path class="cls-2" d="M197.15,96.89V161a32,32,0,1,0,0-64.06Z"/><path class="cls-3" d="M165.12,128.92a32,32,0,0,0,32,32V96.89A32,32,0,0,0,165.12,128.92Z"/><g class="cls-4"><rect class="cls-5" x="254.01" y="96.89" width="47.84" height="64.06"/></g><g class="cls-6"><rect class="cls-5" x="301.04" y="111.49" width="40.54" height="50.27"/></g><g class="cls-7"><rect class="cls-5" x="340.77" y="111.49" width="42.98" height="65.68"/></g><g class="cls-8"><rect class="cls-5" x="382.94" y="111.49" width="41.35" height="50.27"/></g><g class="cls-9"><rect class="cls-5" x="424.29" y="96.08" width="49.46" height="65.68"/></g><g class="cls-10"><rect class="cls-5" x="472.94" y="111.49" width="40.54" height="50.27"/></g><g class="cls-11"><rect class="cls-5" x="512.67" y="96.89" width="17.03" height="64.06"/></g><g class="cls-12"><rect class="cls-5" x="528.89" y="96.89" width="17.03" height="64.06"/></g><rect class="cls-1" width="675" height="270"/></svg>