<svg id="레이어_1" data-name="레이어 1" xmlns="http://www.w3.org/2000/svg" viewBox="0 0 675 270"><defs><style>.cls-1{fill:#898989;}.cls-2{fill:#e60012;}.cls-3{fill:none;}</style></defs><path class="cls-1" d="M174.37,103.76h12.29v1.82h-5.12v13.31h-2V105.58h-5.13Z"/><path class="cls-1" d="M197.29,118.89h-1.85v-7.2c0-1.5-.42-2.47-2.19-2.47-1.52,0-3.08.89-3.08,3.67v6h-1.85V103.76h1.85v5.59h.05a3.86,3.86,0,0,1,3.22-1.79c1.71,0,3.85.69,3.85,3.83Z"/><path class="cls-1" d="M209.39,115.43a4.6,4.6,0,0,1-5,3.78c-3.09,0-4.93-2.34-4.93-5.53,0-3.4,1.64-6.12,5.29-6.12,3.18,0,4.74,2.53,4.74,6.43h-8c0,2.29,1.07,3.61,3.2,3.61a2.78,2.78,0,0,0,2.84-2.17Zm-1.77-2.93c-.11-1.7-.83-3.28-3.08-3.28a3.23,3.23,0,0,0-3,3.28Z"/><path class="cls-1" d="M222.09,119.29c-5.65,0-7.38-4.7-7.38-8s1.73-8,7.38-8,7.36,4.7,7.36,8S227.73,119.29,222.09,119.29Zm0-14.11c-3.29,0-5.28,2.59-5.28,6.15s2,6.15,5.28,6.15,5.26-2.59,5.26-6.15S225.37,105.18,222.09,105.18Z"/><path class="cls-1" d="M233.75,118.89H231.9v-11h1.75v1.83h0a3.58,3.58,0,0,1,3.1-2.14,1.52,1.52,0,0,1,.48.06v1.92h-.69a2.81,2.81,0,0,0-2.83,2.95Z"/><path class="cls-1" d="M239,105.87v-2.11h1.85v2.11Zm1.85,13H239v-11h1.85Z"/><path class="cls-1" d="M252.79,118c0,1.58,0,5.55-5.12,5.55-1.3,0-3.85-.36-4.21-3.29h1.86A2.26,2.26,0,0,0,247.8,122c3.2,0,3.14-2.57,3.14-3.88v-.46a3.28,3.28,0,0,1-3,1.56c-3.75,0-4.84-3.52-4.84-6.15,0-3.1,1.65-5.5,4.59-5.5a3.77,3.77,0,0,1,3.32,1.93v-1.62h1.75ZM248,117.6c1.18,0,3-.77,3-3.7,0-1.79-.29-4.68-3-4.68-2.87,0-3,2.72-3,4.13C245,115.77,246,117.6,248,117.6Z"/><path class="cls-1" d="M255.41,105.87v-2.11h1.85v2.11Zm1.85,13h-1.85v-11h1.85Z"/><path class="cls-1" d="M269,118.89h-1.85v-6.78c0-1.92-.55-2.89-2.36-2.89-1.05,0-2.9.68-2.9,3.67v6H260v-11h1.75v1.56h0a4,4,0,0,1,3.33-1.87c1.7,0,3.85.69,3.85,3.83Z"/><path class="cls-1" d="M271.69,111.23c.09-2.64,1.83-3.67,4.55-3.67.88,0,4.09.25,4.09,3.07V117c0,.47.23.66.61.66a3,3,0,0,0,.61-.09v1.35a3.6,3.6,0,0,1-1,.21c-1.63,0-1.89-.84-1.95-1.68a5,5,0,0,1-4,1.79,3.18,3.18,0,0,1-3.46-3.18c0-.93.27-3.08,3.35-3.46l3.06-.38c.43,0,1-.21,1-1.3s-.84-1.8-2.59-1.8a2.19,2.19,0,0,0-2.52,2.14Zm6.78,2c-.29.23-.76.4-3.05.69-.91.13-2.36.4-2.36,1.79a1.74,1.74,0,0,0,2,1.92c1.73,0,3.41-1.12,3.41-2.59Z"/><path class="cls-1" d="M285.36,118.89h-1.85V103.76h1.85Z"/><rect class="cls-2" x="352.32" y="100.61" width="11.51" height="46.04"/><polygon class="cls-2" points="446.57 100.78 446.57 121.91 439.7 121.91 439.7 100.78 428.69 100.78 428.69 164.05 439.7 164.05 439.7 132.13 446.57 132.13 446.57 164.05 457.61 164.05 457.61 100.78 446.57 100.78"/><path class="cls-2" d="M316.35,190.75l47.15-.09V151.53l-47.15,0Zm11.51-29H352v18.82H327.86Z"/><path class="cls-2" d="M345.79,132.8A180.79,180.79,0,0,1,306,134.71V114.22h35.84V104H294.48v10.21h0v31.1H306v0c4.76.11,23.79.3,39.76-3Z"/><path class="cls-2" d="M405.8,115.21h16.86V105H404.89V97H393.37v8H375.29v10.21h16.57c-.81,4.06-4.4,14.85-20.12,22.19l6.07,8.69s14.46-6.87,21-20.2c6.56,13.33,21,20.2,21,20.2l6.09-8.69C410.21,130.06,406.62,119.27,405.8,115.21Z"/><path class="cls-2" d="M469.52,94.81a15.56,15.56,0,1,0,15.56-15.56A15.58,15.58,0,0,0,469.52,94.81Zm7.53,0a8,8,0,1,1,8,8A8,8,0,0,1,477.05,94.81Z"/><rect class="cls-3" width="675" height="270"/></svg>