<svg id="레이어_1" data-name="레이어 1" xmlns="http://www.w3.org/2000/svg" viewBox="0 0 675 270"><defs><style>.cls-1{fill:#004da0;}.cls-2{fill:#009953;}.cls-3{fill:none;}</style></defs><path class="cls-1" d="M285.41,87.41c-.39,1.94-1.63,3.23-3.3,2.89A3.06,3.06,0,0,1,280,86.48a2.53,2.53,0,0,1,.42-1c-.18,1.29.34,2.84,1.77,3.12s2-.56,2.27-1.74a6.5,6.5,0,0,0,.12-1.06l-6.76-1.34c-.83-.17-1.43-.3-2,.4h-.05l.6-3h.05c.11.81,1.23.94,1.91,1.07L283.89,84c.67.14,1.75.44,2.2-.24h0Z"/><path class="cls-1" d="M275.38,97.6a4.11,4.11,0,0,1,0-5.72,4,4,0,0,1,3-.67l4.07.13c.69,0,1.81.17,2.12-.6h.05l-.1,2.88h0c-.27-.76-1.38-.72-2.07-.73l-4.08-.13c-2-.07-3,.75-3.05,2.3a2.68,2.68,0,0,0,1,2.25,2.07,2.07,0,0,0,1.39.36l4.6.16c.67,0,1.79.14,2.11-.6h.05l-.1,2.87h-.05c-.26-.78-1.38-.72-2.08-.74l-5.76-.2c-.69,0-1.8-.14-2.11.62h-.05l.08-2.22Z"/><path class="cls-1" d="M283.45,106.84a3.47,3.47,0,0,0,.64-2.49c-.11-.85-.59-1.89-1.63-1.75-2.08.26-1.37,5.42-4.17,5.78-1.63.21-3.36-1.28-3.67-3.61a7.92,7.92,0,0,1,.1-2.75l1.84-.69a5.18,5.18,0,0,0-.82,3.46c.1.85.79,2.07,1.85,1.95,2.36-.31,1.26-5.43,4.47-5.84,1.91-.23,2.9,1.6,3.13,3.44a7,7,0,0,1,0,2.28Z"/><path class="cls-1" d="M281.85,114.28,281,111.4l4.12.41Zm-1,.74L279,116.38c-.92.68-1.05.84-1.59.22l0,0,.86,3h0c.19-1,.94-1.45,1.68-2l6.66-5.17-.65-2.3-.05,0c0,.75-.72.66-1.3.6l-6.83-.7a3.44,3.44,0,0,1-2.49-.83h0l.76,2.69.05,0c.06-.78.51-.79,1.43-.71l2.28.16Z"/><path class="cls-1" d="M281.12,121c-.78.38-1.33.63-1.4,1.56h0l-1.18-2.41h0c.77.51,1.33.24,2.09-.13l5.48-2.64c.77-.38,1.32-.64,1.39-1.55l0,0,1,2h0a.87.87,0,0,0-.25.37l-.17.33-3.89,8,5.2-2.52c.78-.37,1.33-.62,1.38-1.54l0,0,1.18,2.4,0,0c-.76-.51-1.31-.25-2.08.13l-7.7,3.73a4.19,4.19,0,0,1,.59-2.75l3.67-7.56Z"/><path class="cls-1" d="M289.72,135.75c-.64.57-1.11,1-.92,1.88l0,0-1.81-2,0,0c.89.29,1.35-.11,2-.68l4.53-4c.63-.56,1.09-1,.89-1.86l0,0,1.5,1.65h0a.81.81,0,0,0-.14.43l-.08.36-1.5,8.79,4.3-3.84c.63-.57,1.1-1,.89-1.86l0,0,1.8,2,0,0c-.87-.28-1.32.12-2,.69l-6.37,5.7a4.19,4.19,0,0,1-.19-2.81l1.42-8.26Z"/><path class="cls-1" d="M302.31,144.17l-2.38-1.84,3.56-2.09Zm-.34,1.14-.68,2.2c-.33,1.08-.34,1.29-1.13,1.09l0,0,2.48,1.91,0,0a3.46,3.46,0,0,1,.15-2.6l2.31-8.07-1.91-1.47,0,0c.43.63-.18,1-.69,1.25l-5.92,3.43a3.53,3.53,0,0,1-2.51.79l0,0,2.21,1.71,0,0c-.4-.66-.05-1,.73-1.41l1.95-1.21Z"/><path class="cls-1" d="M307.14,150.86c-.45.75-.76,1.26-.3,2.06v0l-2.63-1.5,0,0c.8.13,1.29-.87,1.63-1.47l3.42-5.84-1.16-.67a2.74,2.74,0,0,0-1.88-.38l0,0,1.37-1.28,0,0a2.06,2.06,0,0,0,.45.38l.34.19,4.92,2.84a1.67,1.67,0,0,0,.67.25l0,0-1.33,1.32,0,0c.1-.56-.4-.93-.82-1.18l-1.2-.68Z"/><path class="cls-1" d="M314.35,147.92c.28-.64.83-1.61.23-2.18l0,0,2.66,1.16,0,0c-.82,0-1.19,1-1.46,1.66l-2.31,5.22c-.28.63-.81,1.6-.24,2.17l0,0-2.65-1.16,0,0c.81.06,1.17-1,1.45-1.63Z"/><path class="cls-1" d="M322.82,149.62c2.32.64,3.11,3.08,2.51,5.2a3.7,3.7,0,0,1-4.73,2.78,4.09,4.09,0,0,1-2.61-5.18A3.78,3.78,0,0,1,322.82,149.62Zm.4-1a5.43,5.43,0,0,0-6.93,3.49,5.29,5.29,0,0,0,3.94,6.55,5.43,5.43,0,0,0,6.85-3.64A5.2,5.2,0,0,0,323.22,148.6Z"/><path class="cls-1" d="M329.57,158.27c-.06.85-.12,1.45.66,2v0l-2.7-.2v0c.85-.41.9-1,1-1.86l.45-6c.06-.86.11-1.46-.65-2v0l2.23.16h0a.94.94,0,0,0,.2.4l.19.32,5.05,7.39.44-5.74c.06-.83.12-1.45-.66-1.95v0l2.68.19v0c-.82.4-.87,1-.93,1.85l-.64,8.47a4.17,4.17,0,0,1-2.09-1.88L330,152.43Z"/><path class="cls-1" d="M344.7,155.5l-3,.3,1.11-3.94Zm.56,1.08,1,2c.52,1,.66,1.17-.05,1.57v0l3.12-.31v0a3.58,3.58,0,0,1-1.71-2l-4-7.41-2.39.24v.05c.76.15.54.81.37,1.38l-1.89,6.53a3.43,3.43,0,0,1-1.25,2.29v0l2.8-.28v0c-.76-.2-.69-.65-.46-1.52l.57-2.21Z"/><path class="cls-1" d="M354.39,157.38a3.79,3.79,0,0,0,2.38-1.59h0l-.24,2.15-6.07,1.61v0c.67-.46.3-1.52.12-2.18l-1.48-5.52c-.18-.67-.38-1.77-1.21-1.84v0l2.82-.75v0c-.68.48-.28,1.54-.11,2.19l1.72,6.38Z"/><path class="cls-1" d="M369.45,150.84a3.8,3.8,0,0,1-2,2.51,3.73,3.73,0,0,1-2.93.38,4,4,0,0,1-2.13-2.24l-2-3.56c-.33-.59-.77-1.61-1.6-1.5v0l2.55-1.38v0c-.52.61.08,1.54.41,2.14l2,3.55c1,1.76,2.18,2.19,3.56,1.43a2.68,2.68,0,0,0,1.45-2,2,2,0,0,0-.39-1.36l-2.2-4c-.33-.6-.79-1.61-1.6-1.51l0,0,2.55-1.39,0,0c-.54.61.07,1.55.41,2.15l2.76,5c.33.6.78,1.61,1.61,1.49l0,0-2,1.07Z"/><path class="cls-1" d="M374.48,146.28c.55.65.93,1.13,1.85,1l0,0L374.28,149l0,0c.32-.87-.08-1.34-.63-2l-3.91-4.65c-.54-.63-.93-1.1-1.84-1l0,0,1.71-1.42h0a1,1,0,0,0,.42.15l.36.1,8.82,1.81-3.72-4.4c-.55-.66-.93-1.13-1.84-1l0,0,2.07-1.71,0,0c-.31.85.08,1.32.63,2l5.49,6.53a4.14,4.14,0,0,1-2.82.08l-8.29-1.72Z"/><path class="cls-1" d="M378.5,134.63c-.52-.46-1.29-1.28-2-.9l0,0,1.93-2.15,0,0c-.29.76.62,1.43,1.13,1.88l4.31,3.79c.51.46,1.28,1.27,2,.88l0,0L384,140.33l0,0c.31-.74-.6-1.42-1.11-1.87Z"/><path class="cls-1" d="M384.91,127.15c-.65-1-1.39-2.09-2.24-1.54h0l1.3-1.86,6.32,9.24a3.34,3.34,0,0,1-2.73.36l-6.44-1.66a4.62,4.62,0,0,0-2.48-.27l0,0,1.27-1.82.14.11a5.63,5.63,0,0,0,1.4.47l6.84,1.79Z"/><path class="cls-1" d="M392.86,125.11l1-1.65a3.77,3.77,0,0,0,.43-2.91v0l1.51,1.48-2.8,5.67,0,0c.1-.81-1-1.23-1.58-1.53l-5.18-2.5c-.63-.3-1.59-.86-2.2-.29l0,0,2.13-4.35a1.61,1.61,0,0,0,.26-.67v0L388,119l0,0a2.17,2.17,0,0,0-1.34,1.34,8.74,8.74,0,0,0-.59,1.44l2.55,1.24.8-1.63a1.49,1.49,0,0,0,.22-.63v0l1.46.72,0,0c-.5,0-.76.61-1,1l-.49,1Z"/><path class="cls-1" d="M388.08,113.54c.64-1.93,2-2.65,3.32-2.22a3,3,0,0,1,1.81,3.11l3.3-1.22a11,11,0,0,0,2.81-1.67l-.45,1.31a2,2,0,0,1-1.27,1.44l-2.77,1-2.48.66c.2-1.21.11-2.72-1.26-3.16a1.75,1.75,0,0,0-2.22,1.34,7,7,0,0,0-.21,1l6.51,2.1c.66.22,1.7.65,2.2,0h.05l-.91,2.76h0c0-.82-1.13-1.07-1.78-1.29L389.21,117c-.67-.22-1.69-.66-2.22,0h0Z"/><path class="cls-1" d="M392.16,103.76a3.48,3.48,0,0,0-1.33,2.19c-.14.86,0,2,1.05,2.15,2.06.34,2.89-4.81,5.68-4.36,1.61.26,2.84,2.19,2.46,4.52a7.73,7.73,0,0,1-.9,2.6l-1.95.12a5.23,5.23,0,0,0,1.79-3.06c.14-.85-.16-2.22-1.21-2.39-2.35-.38-2.79,4.82-6,4.3-1.9-.3-2.31-2.35-2-4.17a7.76,7.76,0,0,1,.7-2.17Z"/><path class="cls-1" d="M392.6,101.16c-.7,0-1.81-.2-2.15.54h0l.16-2.86h0c.25.77,1.39.75,2.07.79l5.74.32c.7,0,1.8.2,2.14-.53h0l-.16,2.86h-.05c-.23-.77-1.36-.74-2-.78Z"/><path class="cls-1" d="M398.46,93.34c.88,0,1.47-.06,1.9-.9h.05l.16,3h-.05c-.33-.74-1.44-.59-2.13-.55l-6.8.36.07,1.34a2.6,2.6,0,0,0,.71,1.76v0L390.53,98v0a1.79,1.79,0,0,0,.08-.57l0-.39-.31-5.64a1.52,1.52,0,0,0-.14-.69v-.05L392,91v0c-.52.22-.56.84-.54,1.33l.07,1.36Z"/><path class="cls-1" d="M397.11,84.27c.89-.18,1.34-.27,1.73-1.14l.05,0,.6,2.9h0c-.53-.65-1.48-.35-2.19-.21l-2.21.45-3.49,3.28a3.58,3.58,0,0,0-1.25,1.71L390,89.91a1.3,1.3,0,0,1,.19-1.2l3.42-3.17-3.17-1.28c-.42-.17-1.21-.37-1.45.55h0l-.54-2.59,6.3,2.53Z"/><path class="cls-1" d="M285.48,73.51a1.33,1.33,0,0,1-1.33,1.31,1.31,1.31,0,1,1,0-2.62A1.33,1.33,0,0,1,285.48,73.51Z"/><path class="cls-1" d="M392.28,73.51A1.33,1.33,0,1,1,391,72.2,1.32,1.32,0,0,1,392.28,73.51Z"/><path class="cls-1" d="M341.38,36.1h-1.3V33h-1.55v8.06a2,2,0,0,1-1.42.53h-4.36a.12.12,0,0,1-.12-.12V35.17h4.67V33.92h-6.22v7.54a1.35,1.35,0,0,0,1.36,1.35h4.62a2.75,2.75,0,0,0,1.46-.33v4.34h1.55V37.34h1.3v9.48h1.55V33h-1.55Z"/><polygon class="cls-1" points="291.1 65.48 295.04 61.15 298.51 64.26 299.55 63.12 296.08 60.02 300.01 55.7 299.08 54.86 290.17 64.65 291.1 65.48"/><path class="cls-1" d="M289.26,61.73a1.37,1.37,0,0,0,1.93-.1l5-5.44a1.36,1.36,0,0,0-.1-1.92l-3.89-3.49-1.05,1.15,1.58,1.4L288,58.51,286.4,57.1l-1,1.14Zm4.37-7.56L295,55.41a.11.11,0,0,1,0,.16l-4.56,5a.11.11,0,0,1-.16,0l-1.39-1.24Z"/><polygon class="cls-1" points="315.65 36.76 314.23 37.38 318.36 46.54 319.78 45.92 317.44 40.73 319.31 39.9 318.8 38.77 316.93 39.59 315.65 36.76"/><path class="cls-1" d="M313.39,51.21l-1.53-3.4-1.42.63L312,51.83a1.37,1.37,0,0,0,1.81.69l7.48-3.31-.51-1.13-7.21,3.19A.12.12,0,0,1,313.39,51.21Z"/><path class="cls-1" d="M310,41.07l-.55-1.22-1.42.62.56,1.23c1.63,3.62-1.54,5.92-1.75,6.07l1.38.53a6.53,6.53,0,0,0,2.33-4.12,6.6,6.6,0,0,0,4.65,1l.53-1.37C315.4,43.9,311.61,44.66,310,41.07Z"/><polygon class="cls-1" points="383.17 59.05 382.12 57.94 378.16 61.61 376.88 60.26 380.84 56.59 379.79 55.48 375.84 59.15 373.61 56.79 372.71 57.63 381.57 67.01 382.46 66.17 379.21 62.72 383.17 59.05"/><path class="cls-1" d="M384.31,60.54a9.68,9.68,0,0,1-2.91,2l1.06,1.12a9.58,9.58,0,0,0,2.9-2l4-3.72h0l-7-7.42-.9.84,5.95,6.31Z"/><polygon class="cls-1" points="369.02 45.31 369.52 44.17 367.63 43.36 368.88 40.51 367.45 39.89 364.18 47.37 365.61 47.98 367.13 44.5 369.02 45.31"/><polygon class="cls-1" points="365.36 48.54 356.35 44.66 355.85 45.81 363.44 49.07 361.9 52.58 363.33 53.19 365.36 48.55 365.36 48.54 365.36 48.54"/><path class="cls-1" d="M365.84,40.56,362.24,39l.62-1.42L361.43,37l-.62,1.42-3.6-1.55-.5,1.16,1.75.75A3,3,0,0,0,357,40.23a3.34,3.34,0,0,0,2,4.3A3.41,3.41,0,0,0,363.5,43a3,3,0,0,0,.09-2.08l1.76.76Zm-6.36,2.82a1.93,1.93,0,0,1-1-2.54,2,2,0,1,1,1,2.54Z"/><path class="cls-1" d="M405.81,97.81A68.31,68.31,0,1,1,337.5,29.49,68.32,68.32,0,0,1,405.81,97.81ZM337.5,30.43a67.38,67.38,0,1,0,67.38,67.38A67.38,67.38,0,0,0,337.5,30.43Z"/><path class="cls-1" d="M387,97.81A49.51,49.51,0,1,1,337.5,48.3,49.5,49.5,0,0,1,387,97.81ZM337.5,49.23a48.58,48.58,0,1,0,48.57,48.58A48.58,48.58,0,0,0,337.5,49.23Z"/><path class="cls-2" d="M368.35,124.66h-23c-7.11,0-8,4.74-8,4.74-1.46-5.32-8.3-4.74-8.3-4.74H306.62V91.71h21.66c7.21.14,9.12,5.84,9.12,5.84,2.36-5.78,9.81-5.83,9.81-5.83h21.14ZM345.74,88.44c-6.31.19-8.3,3.9-8.3,3.9-2-3.88-8.08-3.89-8.08-3.89h-26v39.47h25.49c3.47,0,4.7,1.63,5.11,2.8H341c1.22-3,4.76-2.78,4.76-2.78h25.92V88.44Z"/><path class="cls-2" d="M324.12,106.89h-9.5v9.56h13.07v0h0v-6.25H331v6.28h13v-6.28h3.3v6.26h13.05v-3.3H350.9v-3h9.48v-9.92H347.33v6.62H344v-6.62h-3.58v6.62h-5.91v-6.62H331v6.62h-3.29v-6.62H314.61v3.29h9.51Zm0,6.28h-5.93v-3h5.93Zm16.34,0h-5.91v-3h5.91Zm10.44-9.63h5.92v3.35H350.9Z"/><polygon class="cls-1" points="335.53 70.17 338.69 69.12 335.53 69.12 335.53 70.17"/><path class="cls-1" d="M328.71,74.69c1.16-1.21,2.37-1.06,2.37-.54a2.17,2.17,0,0,1-.6,1.14H323l-4.1-5.92h0a4.82,4.82,0,0,0-4.51-2.18h-11V85c6.71,0,23.22,0,25.16,0,7.43.07,8.88,3.23,8.88,3.23,1.56-2.46,4.56-3.22,9.19-3.22h25.08V67.19h-11.2A4.8,4.8,0,0,0,356,69.37h0l-4.2,5.92h-6.21V70l4.25-4.16h-4.39l1.11-1h-8.9a4.07,4.07,0,0,0-3.72,1.75h-3.13c-2.88,0-3.93,1.62-3.34,3.76Zm39.64,7h-21c-5.59,0-8.19.38-10,2.31-1.91-1.85-3.4-2.3-9-2.3h-21.8V70.49h6.85a3.36,3.36,0,0,1,1.61.33,3.75,3.75,0,0,1,1.13,1c.46.64,4.52,6.58,4.52,6.58h11.71s1.09-2.25,1.76-3.82.45-2.7-1-2.81c-1.22-.1-2,.2-2.12.7l-.52-1.78c-.31-.9-.09-1.56,1.16-1.56h3.8s.07-1.22,2.16-1.22h6.25l-1.76,1.62v8.87h12.14s3.86-5.94,4.32-6.58a3.22,3.22,0,0,1,2.73-1.35h7Z"/><path class="cls-2" d="M332.24,120a2.07,2.07,0,0,0,1.09-.87h0v2.81c0,.29,0,.51.24.69v0h-1v0c.31-.15.29-.39.29-.69V120h-.59Z"/><path class="cls-2" d="M334.83,122.39a1.9,1.9,0,0,0,1.54-1.73,1,1,0,0,0-.87-1.07.73.73,0,0,0-.73.75.76.76,0,0,0,.77.82.94.94,0,0,0,.53-.16l-.34.42a1.14,1.14,0,0,1-.41.07,1,1,0,0,1-1.06-1,1.23,1.23,0,0,1,1.31-1.22,1.3,1.3,0,0,1,1.31,1.37,2,2,0,0,1-.75,1.48,3,3,0,0,1-1.55.61Z"/><path class="cls-2" d="M338.82,121.53c-.44,0-.8,0-1.07,0l1.07-1.81Zm0,.39v.13c0,.26,0,.44-.24.54v0h1v0c-.23-.11-.23-.35-.23-.56v-.11h.4l.24-.6a1,1,0,0,1-.64.21v-2.21h-.7l-1.56,2.6Z"/><path class="cls-2" d="M342.39,119.54a2.22,2.22,0,0,0-1,.53,1.65,1.65,0,0,0-.55,1.21,1,1,0,0,0,.89,1.07.69.69,0,0,0,.7-.76.74.74,0,0,0-.78-.83,1,1,0,0,0-.55.17l.32-.41a1.08,1.08,0,0,1,.44-.09,1,1,0,0,1,1.08,1,1.21,1.21,0,0,1-1.27,1.21,1.35,1.35,0,0,1-1.34-1.4,2.34,2.34,0,0,1,2.29-2.06Z"/><path class="cls-1" d="M225.07,228.78c2.21,0,3.89,1.07,3.89,3s-1.82,3.2-3.74,3.2a2.83,2.83,0,0,1-1.24-.24c1.46-.08,3.05-1,3.05-2.62S226,230,224.61,230a6.67,6.67,0,0,0-1.19.11v7.66c0,1,0,1.63.88,2.14V240h-3.38v-.06c.87-.31.77-1.56.77-2.32v-6.41c0-.77.1-2-.75-2.35v-.05Z"/><path class="cls-1" d="M237.64,238.84a4.24,4.24,0,0,1-3.33,1.39,4.18,4.18,0,0,1-3.08-1.18,4.46,4.46,0,0,1-.87-3.35v-4.54c0-.77.12-2-.74-2.33v-.05h3.22v.05c-.84.32-.74,1.56-.74,2.33v4.54c0,2.26,1,3.31,2.7,3.31a3,3,0,0,0,2.48-1.19,2.26,2.26,0,0,0,.36-1.55v-5.11c0-.77.1-2-.75-2.33v-.05h3.23v.05c-.86.32-.77,1.56-.77,2.35v6.41c0,.76-.09,2,.77,2.32V240h-2.49Z"/><path class="cls-1" d="M248.65,230.8a3.84,3.84,0,0,0-2.66-1.06c-1,0-2.2.37-2.2,1.54,0,2.33,5.85,2.29,5.85,5.44,0,1.81-1.91,3.51-4.56,3.51a9,9,0,0,1-3-.5l-.49-2.13a5.87,5.87,0,0,0,3.72,1.41c1,0,2.44-.57,2.44-1.77,0-2.65-5.85-2.17-5.85-5.77,0-2.14,2.19-3,4.26-3a8.34,8.34,0,0,1,2.53.38Z"/><path class="cls-1" d="M256.9,234.5h-3.34l1.68-4.28Zm.5,1.27.91,2.39c.47,1.19.6,1.38-.23,1.75V240h3.48v-.06a3.91,3.91,0,0,1-1.66-2.41l-3.54-8.72h-2.69v.05c.82.25.5,1,.26,1.58l-2.84,7.09a3.78,3.78,0,0,1-1.65,2.41V240h3.13v-.06c-.82-.31-.7-.8-.33-1.75l.87-2.39Z"/><path class="cls-1" d="M263.91,237.75c0,1,0,1.63.88,2.16V240h-3v-.06c.9-.53.9-1.2.9-2.16V231c0-.95,0-1.63-.89-2.14v-.05h2.49v0a1.09,1.09,0,0,0,.25.42l.24.34,6.22,7.85V231c0-.95,0-1.63-.89-2.14v-.05h3v.05c-.88.51-.88,1.19-.88,2.14v9.54a4.7,4.7,0,0,1-2.48-1.94l-5.83-7.39Z"/><path class="cls-1" d="M281.23,237.75c0,1,0,1.63.88,2.16V240h-3v-.06c.9-.53.9-1.2.9-2.16V231c0-.95,0-1.63-.89-2.14v-.05h2.49v0a1,1,0,0,0,.26.42l.23.34,6.22,7.85V231c0-.95,0-1.63-.88-2.14v-.05h3v.05c-.87.51-.87,1.19-.87,2.14v9.54a4.72,4.72,0,0,1-2.49-1.94l-5.82-7.39Z"/><path class="cls-1" d="M297.75,234.5H294.4l1.68-4.28Zm.49,1.27.91,2.39c.46,1.19.6,1.38-.23,1.75V240h3.48v-.06a4,4,0,0,1-1.67-2.41l-3.53-8.72h-2.68v.05c.8.25.49,1,.25,1.58l-2.84,7.09c-.38,1-.66,1.92-1.65,2.41V240h3.13v-.06c-.81-.31-.7-.8-.34-1.75l.88-2.39Z"/><path class="cls-1" d="M306.19,237.75c0,1,0,1.63.88,2.16V240h-3.35v-.06c.84-.32.74-1.56.74-2.32V230H303a2.93,2.93,0,0,0-2,.69h-.05l.6-2h.05a2.21,2.21,0,0,0,.65.12H309a1.91,1.91,0,0,0,.78-.12h0l-.54,2h-.05c-.22-.6-.9-.69-1.47-.69h-1.53Z"/><path class="cls-1" d="M311.75,231.18c0-.79.11-2-.74-2.35v-.05h3.21v.05c-.84.32-.74,1.58-.74,2.35v6.41c0,.76-.1,2,.74,2.32V240H311v-.06c.83-.31.74-1.56.74-2.32Z"/><path class="cls-1" d="M321.34,229.72c2.69,0,4.27,2.39,4.27,4.87a4.13,4.13,0,0,1-4.23,4.42c-2.67,0-4.35-2.45-4.35-4.82A4.18,4.18,0,0,1,321.34,229.72Zm.12-1.23a6,6,0,0,0-6.36,5.85,5.94,5.94,0,0,0,6.19,5.89,6.06,6.06,0,0,0,6.26-6A5.88,5.88,0,0,0,321.46,228.49Z"/><path class="cls-1" d="M330.2,237.75c0,1,0,1.63.89,2.16V240h-3v-.06c.89-.53.89-1.2.89-2.16V231c0-.95,0-1.63-.88-2.14v-.05h2.48v0a1,1,0,0,0,.25.42l.24.34,6.22,7.85V231c0-.95,0-1.63-.89-2.14v-.05h3v.05c-.88.51-.88,1.19-.88,2.14v9.54a4.76,4.76,0,0,1-2.49-1.94l-5.83-7.39Z"/><path class="cls-1" d="M346.65,234.5H343.3l1.68-4.28Zm.5,1.27.91,2.39c.47,1.19.6,1.38-.23,1.75V240h3.48v-.06a4,4,0,0,1-1.67-2.41l-3.54-8.72h-2.68v.05c.82.25.5,1,.26,1.58l-2.83,7.09a3.85,3.85,0,0,1-1.65,2.41V240h3.12v-.06c-.81-.31-.7-.8-.34-1.75l.89-2.39Z"/><path class="cls-1" d="M356.72,238.74a4.13,4.13,0,0,0,3-1h0l-.87,2.27h-7v-.06c.86-.31.76-1.56.76-2.32v-6.41c0-.79.1-2-.76-2.35v-.05h3.24v.05c-.87.32-.74,1.58-.74,2.35v7.41Z"/><path class="cls-1" d="M372.48,238.84a4.24,4.24,0,0,1-3.33,1.39,4.14,4.14,0,0,1-3.07-1.18,4.43,4.43,0,0,1-.88-3.35v-4.54c0-.77.13-2-.74-2.33v-.05h3.22v.05c-.84.32-.74,1.56-.74,2.33v4.54c0,2.26.95,3.31,2.7,3.31a3,3,0,0,0,2.49-1.19,2.31,2.31,0,0,0,.35-1.55v-5.11c0-.77.1-2-.75-2.33v-.05H375l0,.05c-.87.32-.77,1.56-.77,2.35v6.41c0,.76-.1,2,.77,2.32V240h-2.5Z"/><path class="cls-1" d="M378.63,237.75c0,1,0,1.63.88,2.16V240h-3v-.06c.9-.53.9-1.2.9-2.16V231c0-.95,0-1.63-.88-2.14v-.05H379v0a1,1,0,0,0,.25.42l.25.34,6.21,7.85V231c0-.95,0-1.63-.88-2.14v-.05h3v.05c-.88.51-.88,1.19-.88,2.14v9.54a4.7,4.7,0,0,1-2.48-1.94l-5.83-7.39Z"/><path class="cls-1" d="M390.3,231.18c0-.79.13-2-.75-2.35v-.05h3.24v.05c-.85.32-.75,1.58-.75,2.35v6.41c0,.76-.1,2,.75,2.32V240h-3.24v-.06c.87-.31.75-1.56.75-2.32Z"/><path class="cls-1" d="M401.35,231.86c.46-1.21,1-2.6,0-3v-.05h2.53l-4.49,11.7c-1.18-.79-1.57-.92-2.07-2.27l-2.57-7a5.12,5.12,0,0,0-1.32-2.43v-.05h2.48V229a6.41,6.41,0,0,0,.46,1.58L399,238Z"/><path class="cls-1" d="M407.15,238.53l2.16.21a4.25,4.25,0,0,0,3.14-1h.05l-.77,2.24h-7.08v-.06c.87-.31.77-1.56.77-2.32v-6.41c0-.79.1-2-.77-2.35v-.05h5.43a1.77,1.77,0,0,0,.81-.08h.05v2h-.05a2.39,2.39,0,0,0-2-.69,9.66,9.66,0,0,0-1.73.12v3.17h2a1.61,1.61,0,0,0,.74-.11h0V235h0c-.27-.49-1-.49-1.51-.49h-1.25Z"/><path class="cls-1" d="M417.32,228.78c2.27,0,3.52,1.19,3.52,2.74a3.3,3.3,0,0,1-2.7,3l2.45,3.09a12.09,12.09,0,0,0,2.75,2.38h-1.56a2.25,2.25,0,0,1-2-.86l-2.07-2.57-1.56-2.39c1.36-.21,2.94-.83,2.94-2.43a2,2,0,0,0-2.19-1.88,7.49,7.49,0,0,0-1.16.13v7.62c0,.77-.1,2,.76,2.32V240h-3.24v-.06c.87-.31.74-1.56.74-2.32v-6.41c0-.79.13-2-.74-2.35v-.05Z"/><path class="cls-1" d="M429.62,230.8a3.88,3.88,0,0,0-2.68-1.06c-1,0-2.19.37-2.19,1.54,0,2.33,5.86,2.29,5.86,5.44,0,1.81-1.92,3.51-4.56,3.51a9,9,0,0,1-3.05-.5l-.5-2.13a5.89,5.89,0,0,0,3.73,1.41c1,0,2.44-.57,2.44-1.77,0-2.65-5.86-2.17-5.86-5.77,0-2.14,2.19-3,4.27-3a8.41,8.41,0,0,1,2.54.38Z"/><path class="cls-1" d="M432.61,231.18c0-.79.13-2-.74-2.35v-.05h3.22v.05c-.85.32-.74,1.58-.74,2.35v6.41c0,.76-.11,2,.74,2.32V240h-3.22v-.06c.84-.31.74-1.56.74-2.32Z"/><path class="cls-1" d="M441.15,237.75c0,1,0,1.63.89,2.16V240h-3.37v-.06c.85-.32.75-1.56.75-2.32V230h-1.5a2.92,2.92,0,0,0-2,.69h0l.59-2h.06a2.34,2.34,0,0,0,.64.12h6.77a1.91,1.91,0,0,0,.78-.12h.05l-.54,2h-.05c-.22-.6-.91-.69-1.46-.69h-1.54Z"/><path class="cls-1" d="M449.91,237.75c0,1,0,1.53.87,2.16V240h-3.31v-.06c.83-.42.7-1.52.7-2.32v-2.52l-2.82-4.54a4.18,4.18,0,0,0-1.61-1.75h1.54a1.46,1.46,0,0,1,1.28.48l2.71,4.43,2.11-3.16c.3-.42.69-1.23-.26-1.7v-.05h3l-4.18,6.29Z"/><path class="cls-1" d="M349.15,190.65h-3.57V182h-4.29v22.51a5.69,5.69,0,0,1-4,1.48H325.26a.32.32,0,0,1-.31-.32V188.05h12.94v-3.48H320.64v21.07a3.76,3.76,0,0,0,3.79,3.75h12.79a7.64,7.64,0,0,0,4.06-.91v12.11h4.29V194.12h3.57v26.47h4.3V182h-4.3Z"/><polygon class="cls-1" points="220.91 207.63 237.21 207.63 237.21 220.58 241.51 220.58 241.51 207.63 257.75 207.63 257.75 204.16 220.91 204.16 220.91 207.63"/><path class="cls-1" d="M229.07,200.62h20.51a3.78,3.78,0,0,0,3.79-3.79V182.3h-4.29v5.88h-19.5V182.3h-4.3v14.53A3.78,3.78,0,0,0,229.07,200.62Zm20-9v5.19a.32.32,0,0,1-.32.32H229.9a.31.31,0,0,1-.31-.32v-5.19Z"/><polygon class="cls-1" points="302.23 181.96 297.93 181.96 297.93 209.99 302.23 209.99 302.23 194.12 307.93 194.12 307.93 190.65 302.23 190.65 302.23 181.96"/><path class="cls-1" d="M280.06,216.27v-10.4h-4.29v10.4a3.79,3.79,0,0,0,3.79,3.78h22.69v-3.46H280.39A.32.32,0,0,1,280.06,216.27Z"/><path class="cls-1" d="M283,186.57v-3.74h-4.29v3.74c0,11.09-10.62,13.37-11.35,13.52l2.89,2.9c2.56-.8,8.05-3,10.61-7.86,2.55,4.83,8,7,10.58,7.85l2.89-2.89C293.45,199.9,283,197.57,283,186.57Z"/><polygon class="cls-1" points="439.18 198.42 434.94 198.42 434.94 213.43 429.75 213.43 429.75 198.42 425.52 198.42 425.52 213.43 416.48 213.43 416.48 216.86 452.39 216.86 452.39 213.43 439.18 213.43 439.18 198.42"/><path class="cls-1" d="M444.39,199a26.56,26.56,0,0,1-1.51,9.62h4.3a27,27,0,0,0,1.48-9.62V183.74h-28.4v3.42h24.13Z"/><polygon class="cls-1" points="400.51 190.65 400.51 181.97 396.2 181.97 396.2 204.72 400.51 204.72 400.51 194.13 406.22 194.13 406.22 190.65 400.51 190.65"/><polygon class="cls-1" points="400.5 206.43 373.29 206.43 373.29 209.91 396.2 209.91 396.2 220.58 400.51 220.58 400.51 206.45 400.5 206.45 400.5 206.43"/><path class="cls-1" d="M389.62,194.35a8.23,8.23,0,0,0-2.06-5.41h5.3v-3.5H382v-4.32h-4.32v4.32H366.79v3.5h5.3a8.25,8.25,0,0,0-2.08,5.41c0,4.88,4.4,8.84,9.81,8.84S389.62,199.23,389.62,194.35Zm-15.27,0a5.47,5.47,0,1,1,5.47,5.37A5.42,5.42,0,0,1,374.35,194.32Z"/><rect class="cls-3" width="675" height="270"/></svg>