<svg id="레이어_1" data-name="레이어 1" xmlns="http://www.w3.org/2000/svg" xmlns:xlink="http://www.w3.org/1999/xlink" viewBox="0 0 675 270"><defs><style>.cls-1{fill:url(#linear-gradient);}.cls-2{fill:url(#linear-gradient-2);}.cls-3{fill:url(#linear-gradient-3);}.cls-4{fill:#133366;}.cls-5{fill:none;}</style><linearGradient id="linear-gradient" x1="135.25" y1="192.9" x2="121.55" y2="115.2" gradientUnits="userSpaceOnUse"><stop offset="0.15" stop-color="#5bc4f1"/><stop offset="0.3" stop-color="#55beed"/><stop offset="0.5" stop-color="#45aee2"/><stop offset="0.73" stop-color="#2a93cf"/><stop offset="0.97" stop-color="#046db6"/><stop offset="1" stop-color="#0069b3"/></linearGradient><linearGradient id="linear-gradient-2" x1="123.05" y1="118.41" x2="200.12" y2="90.36" xlink:href="#linear-gradient"/><linearGradient id="linear-gradient-3" x1="211.7" y1="116.44" x2="198.04" y2="193.89" xlink:href="#linear-gradient"/></defs><path class="cls-1" d="M144.23,169a18.42,18.42,0,0,1-13.53-30.91,40.81,40.81,0,0,1-5-19.59c0-1.08,0-2.19.12-3.24a39.81,39.81,0,1,0,33,72.18V161.75A18.32,18.32,0,0,1,144.23,169Z"/><path class="cls-2" d="M144.23,132.2a18.22,18.22,0,0,1,5.93,1A19.85,19.85,0,1,1,184.76,114a40.82,40.82,0,0,1,9.23-1.08,39.09,39.09,0,0,1,13.61,2.41,41,41,0,1,0-76.9,22.83A18.46,18.46,0,0,1,144.23,132.2Z"/><path class="cls-3" d="M194,112.87a40.82,40.82,0,0,0-9.23,1.08,19.85,19.85,0,0,1-1.45,19.22,18.66,18.66,0,0,1,5.93-1,18.41,18.41,0,1,1-14.64,29.57v25.69A39.81,39.81,0,1,0,194,112.87Z"/><path class="cls-4" d="M335.49,148.55h11.59v6.5a18.65,18.65,0,0,1-12.7,4.76c-8.93,0-15.86-5.7-15.86-17.44,0-9.12,4.37-17.41,15.88-17.41,5.82,0,10.67,2.32,12.36,8.75h8.46c-.91-9.42-8.43-16.71-20.32-16.71-15.39,0-25.5,9.53-25.5,25.74,0,16.46,11.28,25.3,25.5,25.3a28.35,28.35,0,0,0,20.78-9.58V140.6H335.49Z"/><polygon class="cls-4" points="279.49 154.57 265.97 117.82 254.8 117.82 254.8 167.21 263.32 167.21 263.32 133.71 275.5 166.64 283.49 166.64 295.67 133.71 295.67 167.21 304.19 167.21 304.19 117.82 293.02 117.82 279.49 154.57"/><polygon class="cls-4" points="417.54 144.27 395.67 144.27 395.67 137.83 387.68 137.83 387.68 144.27 365.79 144.27 365.79 149.57 417.54 149.57 417.54 144.27"/><path class="cls-4" d="M391.69,129.88c3.63,6.33,12.63,8.78,21.75,9.08v-5.27c-10.88-.57-17.71-7.16-17.71-13.8v-3.25h-8.11v3.25c0,6.64-6.82,13.23-17.71,13.8V139C379,138.66,388,136.21,391.69,129.88Z"/><path class="cls-4" d="M371.68,152.5v11.19a4.73,4.73,0,0,0,4.72,4.7h35.84v-5.28H379.62V152.5Z"/><polygon class="cls-4" points="469.96 116.64 462.38 116.64 462.38 133.41 458.15 133.41 458.15 116.64 450.56 116.64 450.56 168.39 458.15 168.39 458.15 138.96 462.38 138.96 462.38 168.39 469.96 168.39 469.96 116.64"/><path class="cls-4" d="M421.74,140.16c0,9.41,4.88,16.46,12.36,16.46s12.34-7.05,12.34-16.46c0-5-1.38-9.39-3.82-12.34h5.59v-5.3h-9.94v-6.46h-8.36v6.46H420v5.3h5.59C423.14,130.77,421.74,135.12,421.74,140.16ZM434.1,129c2.92,0,4.69,4.7,4.69,11.17s-1.77,11.16-4.69,11.16-4.71-4.7-4.71-11.16S431.16,129,434.1,129Z"/><path class="cls-4" d="M526.68,157.19H504.8V147.8h16V119h-7.94v8.82H488.74V119h-7.92v24.11a4.7,4.7,0,0,0,4.68,4.69h11.3v9.39H474.93v5.33h51.75Zm-37.94-14.67V133.1h24.11v9.42Z"/><path class="cls-4" d="M536.52,148.39v15.3a4.71,4.71,0,0,0,4.7,4.7h34.11V151a2.65,2.65,0,0,0-2.65-2.64Zm30.87,14.72H544.47v-9.43h22.92Z"/><path class="cls-4" d="M575.33,116.64h-7.94v13.24h-7.86a8.94,8.94,0,0,0-3.28-4.4h6.15v-5.31H549.51v-4.7h-8.34v4.7H528.29v5.31h6.15a9.1,9.1,0,0,0-3.79,7.62c0,6.72,5.82,11.76,14.69,11.76,7.82,0,13.26-3.91,14.46-9.39h7.59V146h7.94Zm-30,22.94a6.47,6.47,0,1,1,6.47-6.48A6.12,6.12,0,0,1,545.34,139.58Z"/><rect class="cls-5" width="675" height="270"/></svg>