<svg xmlns="http://www.w3.org/2000/svg" xmlns:xlink="http://www.w3.org/1999/xlink" viewBox="0 0 675 270"><defs><style>.cls-1{isolation:isolate;}.cls-2{fill:url(#linear-gradient);}.cls-3{fill:url(#linear-gradient-2);}.cls-4{fill:url(#linear-gradient-3);}.cls-5{fill:url(#linear-gradient-4);}.cls-10,.cls-6{opacity:0.5;}.cls-10,.cls-11,.cls-13,.cls-15,.cls-16,.cls-19,.cls-6,.cls-7,.cls-8,.cls-9{mix-blend-mode:screen;}.cls-6{fill:url(#radial-gradient);}.cls-11,.cls-13,.cls-15,.cls-16,.cls-7,.cls-8,.cls-9{opacity:0.25;}.cls-7{fill:url(#radial-gradient-2);}.cls-8{fill:url(#radial-gradient-3);}.cls-9{fill:url(#radial-gradient-4);}.cls-10{fill:url(#radial-gradient-5);}.cls-11{fill:url(#radial-gradient-6);}.cls-12,.cls-14{mix-blend-mode:multiply;}.cls-12{fill:url(#White_Black_1);}.cls-13{fill:url(#radial-gradient-7);}.cls-14{fill:url(#linear-gradient-5);}.cls-15{fill:url(#radial-gradient-8);}.cls-16{fill:url(#radial-gradient-9);}.cls-17{fill:url(#linear-gradient-6);}.cls-18{fill:url(#새_그라디언트_견본_4);}.cls-19{opacity:0.7;fill:url(#radial-gradient-10);}.cls-20{fill:none;}</style><linearGradient id="linear-gradient" x1="309.74" y1="224.4" x2="309.74" y2="48.84" gradientUnits="userSpaceOnUse"><stop offset="0" stop-color="#434141"/><stop offset="1" stop-color="#252829"/></linearGradient><linearGradient id="linear-gradient-2" x1="308.54" y1="55.31" x2="308.54" y2="214.97" gradientUnits="userSpaceOnUse"><stop offset="0" stop-color="#333"/><stop offset="1"/></linearGradient><linearGradient id="linear-gradient-3" x1="378.25" y1="194.12" x2="378.25" y2="77.43" xlink:href="#linear-gradient"/><linearGradient id="linear-gradient-4" x1="378.25" y1="79.95" x2="378.25" y2="188.01" xlink:href="#linear-gradient-2"/><radialGradient id="radial-gradient" cx="502.75" cy="485.05" r="30.58" gradientTransform="translate(-205.74 -330.21) scale(0.95 0.99)" gradientUnits="userSpaceOnUse"><stop offset="0" stop-color="#fff"/><stop offset="1" stop-color="#221714"/></radialGradient><radialGradient id="radial-gradient-2" cx="289.95" cy="207.44" r="15.02" gradientTransform="translate(0 -27.21) scale(1 1.04)" xlink:href="#radial-gradient"/><radialGradient id="radial-gradient-3" cx="358.06" cy="104.18" r="22.27" gradientTransform="translate(0 -27.21) scale(1 1.04)" xlink:href="#radial-gradient"/><radialGradient id="radial-gradient-4" cx="357.51" cy="161.54" r="21.69" gradientTransform="translate(0 -27.21) scale(1 1.04)" xlink:href="#radial-gradient"/><radialGradient id="radial-gradient-5" cx="383.13" cy="193.11" r="10.94" gradientTransform="translate(0 -27.21) scale(1 1.04)" xlink:href="#radial-gradient"/><radialGradient id="radial-gradient-6" cx="373.51" cy="207.72" r="20.13" gradientTransform="translate(0 -27.21) scale(1 1.04)" xlink:href="#radial-gradient"/><linearGradient id="White_Black_1" x1="366.79" y1="133.66" x2="366.79" y2="128.93" gradientUnits="userSpaceOnUse"><stop offset="0" stop-color="#fff"/><stop offset="1" stop-color="#231c1c"/></linearGradient><radialGradient id="radial-gradient-7" cx="549.53" cy="471.9" r="10.78" xlink:href="#radial-gradient"/><linearGradient id="linear-gradient-5" x1="316.07" y1="134.28" x2="316.07" y2="122.74" gradientUnits="userSpaceOnUse"><stop offset="0" stop-color="#fff"/><stop offset="0.53" stop-color="#231c1c"/><stop offset="1" stop-color="#fff"/></linearGradient><radialGradient id="radial-gradient-8" cx="325.4" cy="208.6" r="13.64" gradientTransform="translate(0 -27.21) scale(1 1.04)" xlink:href="#radial-gradient"/><radialGradient id="radial-gradient-9" cx="288.2" cy="139.66" r="15.12" gradientTransform="translate(0 -27.21) scale(1 1.04)" xlink:href="#radial-gradient"/><linearGradient id="linear-gradient-6" x1="404.25" y1="105.47" x2="295.47" y2="133.95" gradientUnits="userSpaceOnUse"><stop offset="0" stop-color="#c3181f"/><stop offset="0.48" stop-color="#9e1f24"/><stop offset="0.6" stop-color="#a11e24"/><stop offset="0.7" stop-color="#ac1c22"/><stop offset="0.8" stop-color="#bd1920"/><stop offset="0.83" stop-color="#c3181f"/><stop offset="0.93" stop-color="#981e23"/><stop offset="0.95" stop-color="#951d22"/><stop offset="0.96" stop-color="#8c1c20"/><stop offset="0.97" stop-color="#7c181c"/><stop offset="0.98" stop-color="#661417"/><stop offset="0.99" stop-color="#490e10"/><stop offset="1" stop-color="#340a0b"/></linearGradient><linearGradient id="새_그라디언트_견본_4" x1="325.54" y1="95.21" x2="383.02" y2="143.44" gradientUnits="userSpaceOnUse"><stop offset="0" stop-color="#b21e23"/><stop offset="0.02" stop-color="#c8181d"/><stop offset="0.03" stop-color="#cd2b27"/><stop offset="0.07" stop-color="#d84f38"/><stop offset="0.09" stop-color="#de6543"/><stop offset="0.11" stop-color="#e06d47"/><stop offset="0.27" stop-color="#dc4a34"/><stop offset="0.48" stop-color="#d61919"/><stop offset="0.71" stop-color="#d61919"/><stop offset="1" stop-color="#c8181d"/></linearGradient><radialGradient id="radial-gradient-10" cx="531.3" cy="462.11" r="109.27" gradientTransform="translate(-205.74 -330.21) scale(0.95 0.99)" gradientUnits="userSpaceOnUse"><stop offset="0" stop-color="#060001"/><stop offset="0.24" stop-color="#fff"/><stop offset="0.76" stop-color="#fff"/><stop offset="0.78" stop-color="#fafafa"/><stop offset="0.81" stop-color="#ececec"/><stop offset="0.85" stop-color="#d5d4d5"/><stop offset="0.88" stop-color="#b5b3b4"/><stop offset="0.91" stop-color="#8c8989"/><stop offset="0.95" stop-color="#595556"/><stop offset="0.99" stop-color="#1e191a"/><stop offset="1" stop-color="#060001"/></radialGradient></defs><g class="cls-1"><g id="레이어_1" data-name="레이어 1"><path class="cls-2" d="M334.48,173.29,313.19,146l30.93-39.67h-16.9c-7.57,0-12.76,2.4-17.36,8l-16.3,20.88V77.85H277.2a7.12,7.12,0,0,0-6.95,7.26v107h16.36a7.12,7.12,0,0,0,6.95-7.26V156.41l13.25,16.93,11.27,14.45a10.34,10.34,0,0,0,8.33,4.35h22.82Z"/><path class="cls-3" d="M343.48,188.56c-1.33-1.52-6.58-8.72-13.16-16.82-8.71-10.7-17.61-23-19.82-25.69,3.41-4.36,25.6-32.82,28.25-36.18l1.16-1.43H326.34a20.12,20.12,0,0,0-14.73,7l-19.44,24.92a.39.39,0,0,1-.28.14.38.38,0,0,1-.37-.4V80H277.21a5,5,0,0,0-4.91,5.16V190h14.31a5,5,0,0,0,4.91-5.14V151a.38.38,0,0,1,.37-.39.34.34,0,0,1,.27.13l16.41,21L320,186.35a9.43,9.43,0,0,0,6.83,3.68h17.95Z"/><path class="cls-4" d="M376.44,192.15c-12.62,0-21.32-9.05-21.32-22.17V85.1a7.13,7.13,0,0,1,7-7.25h16.37v87.57a6.4,6.4,0,0,0,6.25,6.53h16.66v12.94a7.14,7.14,0,0,1-7,7.26Z"/><path class="cls-5" d="M376.44,190c-11.5,0-19.28-8.09-19.28-20.05V85.1A5.06,5.06,0,0,1,362.1,80h14.33v85.46a8.49,8.49,0,0,0,8.29,8.66h14.62v10.81a5.06,5.06,0,0,1-4.95,5.14Z"/><rect class="cls-6" x="272.3" y="114.95" width="0.28" height="74.97"/><path class="cls-7" d="M274,190h12.78a5.09,5.09,0,0,0,4.7-5.37V151.28h-.29v33.38c0,2.9-2.28,5.07-4.41,5.07H274Z"/><path class="cls-8" d="M357.46,114.34V84.76a4.81,4.81,0,0,1,4.34-4.5h14.34l.29-.3H361.8a5.14,5.14,0,0,0-4.64,4.81v29.58Z"/><path class="cls-9" d="M357.46,170.45V114.56h-.3v55.89Z"/><path class="cls-10" d="M376.12,164.42a14.27,14.27,0,0,0,.27,3.07,8.69,8.69,0,0,0,2.69,4.66,9.09,9.09,0,0,0,6.38,2.24h13.82v-.31l-14,0a8.21,8.21,0,0,1-6.84-3,8.68,8.68,0,0,1-1.79-3.65,14.58,14.58,0,0,1-.21-3Z"/><path class="cls-11" d="M394.17,189.74h-18c-11,0-18.58-7.81-18.58-19.28h-.29c0,11.64,7.68,19.58,18.87,19.58h18Z"/><path class="cls-12" d="M357.16,133.71h19.27V120.85H357.16Z"/><path class="cls-13" d="M310.36,146.06s25.82-33.09,28.69-36.74h-.38L310.09,146Z"/><path class="cls-14" d="M326.22,108.26A19.55,19.55,0,0,0,312,115.05l-19.41,24.86,18,6s26.17-33.55,29.07-37.24C336.12,108.67,326.22,108.26,326.22,108.26Z"/><path class="cls-15" d="M320.3,186.65a9.16,9.16,0,0,0,6.47,3.38h15.77l-.27-.3h-15.5a10.41,10.41,0,0,1-6.47-3.08Z"/><path class="cls-16" d="M289.77,80H277a5.1,5.1,0,0,0-4.7,5.38v34.12h.29V85.35c0-2.9,2.28-5.06,4.41-5.06h12.77Z"/><path class="cls-17" d="M386.29,109.15l-61.07,0c-8.28,0-13.74,3-17.59,7.93l-11.82,15.18s0,0,0,0A26.49,26.49,0,0,1,312,126.85h74.28c9.41,0,18.46-3,18.46-10.73a68.68,68.68,0,0,0-.84-12S399.48,109.15,386.29,109.15Z"/><path class="cls-18" d="M296,132.09l13.66-17.54c3.37-4.3,7.79-8.28,17.18-8.28h59.48c12.57,0,17-4.65,17-4.7l1.45-1.59v16.14a6.74,6.74,0,0,1-1.86,4.66c-2.87,3.27-8.45,4.94-16.59,4.94H311.9A24.63,24.63,0,0,0,296,132.09Z"/><path class="cls-19" d="M404.64,116.94c-.07,1.56-2.05,8.41-18.35,8.41H313.05a23.4,23.4,0,0,0-17,6.6l-.13.15a24.59,24.59,0,0,1,17.15-6.42h73.24c18.39,0,18.35-8.72,18.35-8.72Z"/><rect class="cls-20" width="675" height="270"/></g></g></svg>