<svg id="레이어_1" data-name="레이어 1" xmlns="http://www.w3.org/2000/svg" xmlns:xlink="http://www.w3.org/1999/xlink" viewBox="0 0 675 270"><defs><style>.cls-1{fill:none;}.cls-2{clip-path:url(#clip-path);}.cls-3{fill:url(#무제_그라디언트_3);}.cls-4{clip-path:url(#clip-path-2);}.cls-5{fill:url(#무제_그라디언트_2);}.cls-6{fill:#901a1e;}.cls-7{fill:#414142;}</style><clipPath id="clip-path"><path class="cls-1" d="M162.12,128.28a47.78,47.78,0,0,1,40.48-22.45c26,0,46.5,20.68,47.2,46.49v4.42a11.51,11.51,0,0,0,.18,2.48,25.43,25.43,0,0,0,50.74-1.95v-.53a30,30,0,0,0-.18-5.65,73.48,73.48,0,0,0-138.42-22.81"/></clipPath><linearGradient id="무제_그라디언트_3" x1="1261.46" y1="-190.53" x2="1264.14" y2="-190.53" gradientTransform="translate(-92783.27 14171.5) scale(73.67)" gradientUnits="userSpaceOnUse"><stop offset="0" stop-color="#e6402c"/><stop offset="1" stop-color="#8f1a1e"/></linearGradient><clipPath id="clip-path-2"><path class="cls-1" d="M210.38,133.94v3.71a25.88,25.88,0,0,1-25.81,25.46,26.42,26.42,0,0,1-22.27-12.38,40.23,40.23,0,0,0,75.84-12.37V135a13.93,13.93,0,0,0-14-13.61,13.71,13.71,0,0,0-13.79,12.55"/></clipPath><linearGradient id="무제_그라디언트_2" x1="1230.25" y1="-171.73" x2="1232.93" y2="-171.73" gradientTransform="translate(-34749.11 5020.34) scale(28.38)" gradientUnits="userSpaceOnUse"><stop offset="0" stop-color="#dd6626"/><stop offset="1" stop-color="#faa927"/></linearGradient></defs><g class="cls-2"><rect class="cls-3" x="162.12" y="87.8" width="138.59" height="94.22"/></g><g class="cls-4"><rect class="cls-5" x="162.12" y="121.39" width="76.01" height="51.62"/></g><path class="cls-6" d="M346.31,117.31a15,15,0,0,1-3.77,9,10.37,10.37,0,0,1-7.92,3.3,10.71,10.71,0,0,1-9.22-4.76c-2.31-3.16-3.46-7.39-3.46-12.77s1.15-9.69,3.46-12.84a10.9,10.9,0,0,1,9.22-4.77,10.49,10.49,0,0,1,7.92,3.23,14.13,14.13,0,0,1,3.77,8.69h-5.77a7.17,7.17,0,0,0-1.92-4.38,5.54,5.54,0,0,0-4.07-1.62,5.7,5.7,0,0,0-5.08,3.16c-1.23,2.07-1.84,4.92-1.84,8.53a16.64,16.64,0,0,0,1.84,8.46,5.69,5.69,0,0,0,5.08,3.15,5.34,5.34,0,0,0,4.07-1.69,7.87,7.87,0,0,0,1.92-4.61h5.77Z"/><path class="cls-6" d="M350.16,104h5.07v4.3l.69-1.46c1.23-2.31,2.85-3.54,4.85-3.54a5.57,5.57,0,0,1,1.15.08V110a9.66,9.66,0,0,0-1.46-.07,4.62,4.62,0,0,0-3.77,1.46,7,7,0,0,0-1.23,4.54v12.76h-5.38V104Z"/><path class="cls-6" d="M373.84,129.38c-3.46,0-6.07-1.15-7.77-3.38s-2.61-5.61-2.61-10.15c0-3.85.85-6.85,2.61-9.15a8.51,8.51,0,0,1,7-3.39,8.24,8.24,0,0,1,7.15,3.31c1.62,2.23,2.46,5.46,2.46,9.69v1.85H368.84a9,9,0,0,0,1.08,4.07,3.82,3.82,0,0,0,3.61,1.85,3.26,3.26,0,0,0,2.16-.7,3.12,3.12,0,0,0,1.15-1.92h5.69a10,10,0,0,1-3.08,5.69,7.76,7.76,0,0,1-5.61,2.23M377.15,114a7.59,7.59,0,0,0-1-3.69,3.43,3.43,0,0,0-3.15-1.69,3.37,3.37,0,0,0-3.16,1.92,9.34,9.34,0,0,0-.92,3.46Z"/><path class="cls-6" d="M391.07,129.38a5.64,5.64,0,0,1-4.54-1.92,8,8,0,0,1-1.69-5.23,8.72,8.72,0,0,1,1.53-5.3,7,7,0,0,1,4.46-2.54l4.16-.77a5.53,5.53,0,0,0,2-.77.7.7,0,0,0,.3-.46,2.16,2.16,0,0,0,.16-.69v-.08a2.77,2.77,0,0,0-.85-2.15,4.16,4.16,0,0,0-2.61-.7,3.4,3.4,0,0,0-2.31.85,3.87,3.87,0,0,0-1,2.54h-5.07c.38-3.16,1.23-5.39,2.53-6.69s3.46-1.92,6.46-1.92c2.62,0,4.62.61,6,1.92a7,7,0,0,1,2.15,5.38V124a12.72,12.72,0,0,0,.23,2.92,1.83,1.83,0,0,0,.93,1.16h0v.84h-5.69a14.82,14.82,0,0,1-.46-3h0a8.43,8.43,0,0,1-6.69,3.46m6.38-9.84v-2.69a4,4,0,0,1-1.54.69L394,118a6.1,6.1,0,0,0-3,1.31,3.2,3.2,0,0,0-.85,2.38,3.9,3.9,0,0,0,.62,2.31,2,2,0,0,0,1.77.77,4.59,4.59,0,0,0,4.23-2.54l.07-.15a2.54,2.54,0,0,0,.31-1.08,2.5,2.5,0,0,0,.31-1.46"/><path class="cls-6" d="M416.75,128.92c-.92.08-2,.15-3.31.15a5.64,5.64,0,0,1-4.07-1.3c-.85-.85-1.23-2.31-1.23-4.23V108.7h-2.77V104h2.77V97.39h5.3V104h3.31v4.69h-3.31v13.61a2,2,0,0,0,.39,1.38,3.09,3.09,0,0,0,1.77.31h1.07v4.92Z"/><path class="cls-6" d="M420.29,104h5.38v24.68h-5.38Zm0-9h5.3v6.07h-5.3Z"/><polygon class="cls-6" points="428.75 104.01 431.67 104.01 434.59 104.01 438.97 122.08 438.89 122.08 443.28 104.01 446.05 104.01 448.89 104.01 441.66 128.69 438.82 128.69 436.05 128.69 428.75 104.01"/><path class="cls-6" d="M460.73,129.38c-3.46,0-6.07-1.15-7.76-3.38s-2.62-5.61-2.62-10.15c0-3.85.85-6.85,2.62-9.15a8.39,8.39,0,0,1,7-3.39,8.25,8.25,0,0,1,7.16,3.31c1.61,2.23,2.46,5.46,2.46,9.69v1.85H455.74a9,9,0,0,0,1.07,4.07,3.82,3.82,0,0,0,3.62,1.85,3.25,3.25,0,0,0,2.15-.7,3.12,3.12,0,0,0,1.15-1.92h5.69a10.05,10.05,0,0,1-3.07,5.69,7.78,7.78,0,0,1-5.62,2.23M464,114a7.59,7.59,0,0,0-1-3.69,3.43,3.43,0,0,0-3.15-1.69,3.38,3.38,0,0,0-3.16,1.92,9.54,9.54,0,0,0-.92,3.46Z"/><polygon class="cls-7" points="325.02 141.15 327.87 141.15 330.79 141.15 330.79 174.52 327.87 174.52 325.02 174.52 325.02 141.15"/><path class="cls-7" d="M335.71,149.83h5.07v3.77l.7-1.23a6.32,6.32,0,0,1,5.53-3.23,6.74,6.74,0,0,1,5.15,2.16,8.36,8.36,0,0,1,1.93,5.84v17.38H348.7V159.14a5.89,5.89,0,0,0-.84-3.38,3.08,3.08,0,0,0-2.54-1.16,3.43,3.43,0,0,0-3.15,1.69,8.39,8.39,0,0,0-1.08,4.85v13.38h-5.38Z"/><path class="cls-7" d="M359,149.83h5.07v3.77l.7-1.23a6.32,6.32,0,0,1,5.53-3.23,6.74,6.74,0,0,1,5.15,2.16,8.36,8.36,0,0,1,1.93,5.84v17.38H372V159.14a5.89,5.89,0,0,0-.84-3.38,3,3,0,0,0-2.54-1.16,3.65,3.65,0,0,0-3.23,1.69,8.39,8.39,0,0,0-1.08,4.85v13.38h-5.38V149.83Z"/><path class="cls-7" d="M383.85,171.67q-2.78-3.45-2.77-9.46c0-4,.92-7.15,2.77-9.53a9,9,0,0,1,7.53-3.54,9.17,9.17,0,0,1,7.61,3.54c1.85,2.31,2.77,5.54,2.77,9.53s-.92,7.16-2.77,9.46a9.86,9.86,0,0,1-15.14,0m11.22-3.84a10.28,10.28,0,0,0,1.23-5.62c0-2.46-.38-4.38-1.23-5.61a4.36,4.36,0,0,0-7.23,0,13.43,13.43,0,0,0,0,11.23,4.36,4.36,0,0,0,7.23,0"/><polygon class="cls-7" points="403.61 149.83 406.53 149.83 409.45 149.83 413.76 167.91 413.76 167.91 418.06 149.83 420.91 149.83 423.75 149.83 416.45 174.52 413.68 174.52 410.91 174.52 403.61 149.83"/><path class="cls-7" d="M431.6,175.21a5.69,5.69,0,0,1-4.54-1.92,8,8,0,0,1-1.69-5.23,8.71,8.71,0,0,1,1.54-5.31,7,7,0,0,1,4.46-2.53l4.15-.77a5.64,5.64,0,0,0,2-.77c.15-.08.23-.23.31-.54a2.44,2.44,0,0,0,.15-.69v-.08a2.77,2.77,0,0,0-.85-2.15,4.23,4.23,0,0,0-2.61-.7,3.42,3.42,0,0,0-2.31.85,3.87,3.87,0,0,0-1,2.54h-5.07q.57-4.72,2.54-6.69c1.3-1.31,3.46-1.92,6.46-1.92,2.61,0,4.61.61,6,1.92a7,7,0,0,1,2.16,5.38v13.15a12.16,12.16,0,0,0,.23,2.92,1.76,1.76,0,0,0,.92,1.16h0v.69h-5.77a15.81,15.81,0,0,1-.46-3h0a7.83,7.83,0,0,1-6.61,3.69m6.38-9.84v-2.69a4.22,4.22,0,0,1-1.54.69l-1.92.46a6.1,6.1,0,0,0-3,1.31,3.17,3.17,0,0,0-.84,2.38,4,4,0,0,0,.61,2.31,2,2,0,0,0,1.77.77,4.58,4.58,0,0,0,4.23-2.54l.08-.16a20.3,20.3,0,0,0,.61-2.53"/><path class="cls-7" d="M457.2,174.75c-.92.08-2,.15-3.3.15a5.67,5.67,0,0,1-4.08-1.3c-.84-.85-1.23-2.31-1.23-4.23V154.52h-2.77v-4.69h2.77v-6.61h5.31v6.61h3.3v4.69h-3.3v13.62a2,2,0,0,0,.38,1.38,3.14,3.14,0,0,0,1.77.31h1.08v4.92Z"/><path class="cls-7" d="M460.82,149.83h5.38v24.69h-5.38Zm0-9h5.3v6.07h-5.3Z"/><path class="cls-7" d="M472.89,171.67q-2.76-3.45-2.77-9.46c0-4,.93-7.15,2.77-9.53a9,9,0,0,1,7.54-3.54,9.17,9.17,0,0,1,7.61,3.54c1.85,2.31,2.77,5.54,2.77,9.53s-.92,7.16-2.77,9.46a9.27,9.27,0,0,1-7.61,3.54,9,9,0,0,1-7.54-3.54M484,167.83a10.28,10.28,0,0,0,1.23-5.62c0-2.46-.38-4.38-1.23-5.61a4.36,4.36,0,0,0-7.23,0,13.43,13.43,0,0,0,0,11.23,4.36,4.36,0,0,0,7.23,0"/><path class="cls-7" d="M494.5,149.83h5.07v3.77l.7-1.23a6.32,6.32,0,0,1,5.53-3.23A6.74,6.74,0,0,1,511,151.3a8.36,8.36,0,0,1,1.93,5.84v17.38h-5.39V159.14a5.89,5.89,0,0,0-.84-3.38,3,3,0,0,0-2.54-1.16,3.43,3.43,0,0,0-3.15,1.69,8.39,8.39,0,0,0-1.08,4.85v13.38H494.5V149.83Z"/><rect class="cls-1" width="675" height="270"/></svg>