<svg id="레이어_1" data-name="레이어 1" xmlns="http://www.w3.org/2000/svg" viewBox="0 0 675 270"><defs><style>.cls-1{fill:#ce0e2d;}.cls-2{fill:#ee7501;}.cls-3{fill:none;}</style></defs><path class="cls-1" d="M266.09,172.18c-5.63-2.64-10.25-4.78-10.25-9.1,0-3.29,2.63-5.7,7.83-5.7a26.41,26.41,0,0,1,5.08.53,16.41,16.41,0,0,0,2.5.27c4.54,0,7.1-2.72,8.8-7.87l.71-2.11A47.5,47.5,0,0,0,263,144.64c-15.39,0-23.51,9.9-23.5,20.17a17.44,17.44,0,0,0,4.14,11.9c3.26,3.8,7.91,6.29,12.26,8.42,6.34,3.12,12.06,5.43,12.06,10.05,0,4.11-4.22,6.44-9.87,6.44-7.74,0-14.51-4.44-15.37-5l-6.36,12c1.13.64,9.32,5.86,22.79,5.86,14.36,0,25.23-8.27,25.23-21S274.25,176.14,266.09,172.18Z"/><path class="cls-1" d="M322.24,178.08l26-32H329.73L309,173.69h-.31V146h-15.3v67.88h.91c6.61,0,14.48-3.07,14.48-14.16V184.18h.31l21.17,28.89H349.7Z"/><path class="cls-1" d="M349.15,73.32c-5.38,1-13.37,5.93-13.34,14.6,0,7.88,6.44,12.65,6.45,23a18.26,18.26,0,0,1-8.84,15.9c1.86-.17,3.9-.27,6.15-.28a51.42,51.42,0,0,1,7.73.47l24.15-29.75A100.74,100.74,0,0,0,349.15,73.32Z"/><path class="cls-1" d="M369.44,153.66c3.05-4.75,3.43-12.32,3.69-20,.28-7.2,1.78-12.61,11.37-12.64,2.12,0,4.14.28,7.81.27,14.05-.06,23.22-4.92,28.92-8.1a100,100,0,0,0-49.78-15.93c-1.37,3.89-12.07,33.74-12.88,36.15a38.74,38.74,0,0,1,4.34,6.36A70.9,70.9,0,0,1,369.44,153.66Z"/><path class="cls-2" d="M318.42,129.28c-1.22,0-1.83-.81-2-2.22s-6.19-56.88-7.09-65.27c-.13-1.23-.43-3.48-.44-4.28a1.8,1.8,0,0,1,1.83-2c2.86,0,18.46,3.66,35,15.3-4.77,1.35-13.4,6.33-13.36,16.64,0,9.13,6.54,14.15,6.58,23.3C339,125.67,322,129.27,318.42,129.28Z"/><path class="cls-2" d="M370.83,157.62a10.64,10.64,0,0,0,.75,1.68,1.65,1.65,0,0,0,1.49.93,3.44,3.44,0,0,0,1.37-.37c1.28-.58,51.72-24.15,59.33-27.67,1.1-.53,3.19-1.47,3.88-1.88a1.85,1.85,0,0,0,1-1.61,1.89,1.89,0,0,0-.29-1c-.95-1.55-5.83-6.74-14-12.42-6.48,3.58-16.6,9.11-31.64,9.18-3.69,0-4.53-.25-7-.24-7.35,0-9.18,3.18-9.45,9.64,0,1.22-.07,2.87-.14,4.67C375.91,144.32,375.23,152.29,370.83,157.62Z"/><rect class="cls-3" width="675" height="270"/></svg>