<svg id="레이어_1" data-name="레이어 1" xmlns="http://www.w3.org/2000/svg" viewBox="0 0 675 270"><defs><style>.cls-1{fill:#f7b400;}.cls-2{fill:#003e93;}.cls-3{fill:#71706d;}.cls-4{fill:none;}</style></defs><polygon class="cls-1" points="309.24 146.96 321.29 134.91 287.2 134.91 287.2 100.82 275.15 112.87 275.15 146.96 309.24 146.96"/><polygon class="cls-1" points="335.47 52.55 323.42 64.6 357.51 64.6 357.51 98.69 369.56 86.64 369.56 52.55 335.47 52.55"/><path class="cls-2" d="M272.17,70.46H253.41v.71a0,0,0,0,1,0,0h0A11.66,11.66,0,0,1,256.18,79v47.25a.92.92,0,0,0,.54.91c.51.24.9,0,1.61-.69h0l11.07-11.08V78.93a11.67,11.67,0,0,1,2.77-7.75h0a0,0,0,0,1,0,0Z"/><path class="cls-2" d="M422.35,70.46H403.58v.71a0,0,0,0,1,0,0h0a11.63,11.63,0,0,1,2.76,7.48V107a10.3,10.3,0,0,1-20.59,0V73.36c0-.66,0-1.35-.54-1.52s-.82,0-1.52.67h0L372.54,83.66v22.4a23.52,23.52,0,0,0,47,0V79.19a11.69,11.69,0,0,1,2.77-8h0s0,0,0,0Z"/><path class="cls-2" d="M348.85,70.46H330.08v.71a0,0,0,0,1,0,0h0a11.74,11.74,0,0,1,2.78,8v24.42L314.29,73.73,299,89v30.86h0a11.81,11.81,0,0,1-2.77,8.1v.71H315v-.71h0a11.68,11.68,0,0,1-2.76-7.69V95.5l18.56,29.88,15.25-15.25V79.05a11.7,11.7,0,0,1,2.77-7.87h0s0,0,0,0Z"/><path class="cls-3" d="M256.89,172.52a2.33,2.33,0,0,0-1.62-.61h-5.4v.42a3,3,0,0,1,.91,2.56v28.64h6.82V174.14A2.09,2.09,0,0,0,256.89,172.52Z"/><path class="cls-3" d="M231.63,213.47V201.26h-6.81v12.79a3.4,3.4,0,0,0,3.4,3.4H257.6v-4Z"/><path class="cls-3" d="M231.52,172c-7.25,0-13.14,5.61-13.14,12.54S224.27,197,231.52,197s13.14-5.62,13.14-12.54S238.78,172,231.52,172Zm0,21.09c-3.49,0-6.31-3.82-6.31-8.55s2.82-8.56,6.31-8.56,6.32,3.83,6.32,8.56S235,193,231.52,193Z"/><path class="cls-3" d="M279.42,213.47V201.26h-6.8v12.79a3.39,3.39,0,0,0,3.39,3.4h29.38v-4Z"/><path class="cls-3" d="M284,184.45a16.56,16.56,0,0,1-1.35-5.57h10.31v-4H282.55v-2.12a2.11,2.11,0,0,0-.71-1.63,2.31,2.31,0,0,0-1.62-.59H275V171a3,3,0,0,1,.91,2.57v1.36h-10.2v4h10.11a16.3,16.3,0,0,1-1.34,5.57c-1.69,3.62-3.76,6.9-10.33,10.73l2.24,3.74A26.69,26.69,0,0,0,279.32,188a26.7,26.7,0,0,0,12.91,10.92l2.25-3.74C287.91,191.35,285.65,188.07,284,184.45Z"/><path class="cls-3" d="M304.69,172.52a2.35,2.35,0,0,0-1.63-.61h-5.39v.42a3,3,0,0,1,.91,2.56V184h-9.3v4h9.3v15.57h6.81V174.14A2.12,2.12,0,0,0,304.69,172.52Z"/><path class="cls-3" d="M356.3,172.52a2.32,2.32,0,0,0-1.62-.61h-5.4v.42a3,3,0,0,1,.91,2.56v10.94h-3.72V174.14a2.08,2.08,0,0,0-.71-1.62,2.32,2.32,0,0,0-1.63-.61h-5.4v.42a3,3,0,0,1,.91,2.56V199.5c-2.3,1.19-6,1.37-7.79,1.37h-9.43V177.68h13.5v-4H315.58v27.76a3.4,3.4,0,0,0,3.4,3.4h12.87c1.79,0,5.49-.18,7.79-1.39v14h6.83V189.81h3.72v27.64H357V174.14A2.08,2.08,0,0,0,356.3,172.52Z"/><path class="cls-3" d="M403,184v-9.84a2.09,2.09,0,0,0-.69-1.62,2.32,2.32,0,0,0-1.63-.61h-5.4v.42a3,3,0,0,1,.91,2.56v22.73H403V188h7.67v-4Z"/><path class="cls-3" d="M390.55,174.91H380.17v-2.12a2.08,2.08,0,0,0-.71-1.63,2.3,2.3,0,0,0-1.63-.59h-5V171a3,3,0,0,1,.91,2.57v1.36H363.33v4h3.89a9.83,9.83,0,0,0-3.42,7.27c0,6,5.89,10.84,13.14,10.84s13.14-4.85,13.14-10.84a9.85,9.85,0,0,0-3.41-7.27h3.88ZM376.94,193c-3.68,0-6.31-3.06-6.31-6.85s2.63-6.86,6.31-6.86,6.32,3.07,6.32,6.86S380.64,193,376.94,193Z"/><path class="cls-3" d="M399.61,201.63H371.19v4h25v11.83H403V205A3.39,3.39,0,0,0,399.61,201.63Z"/><path class="cls-3" d="M447.64,174H416.82v4h27.37v24.84H451V177.37A3.39,3.39,0,0,0,447.64,174Z"/><path class="cls-3" d="M439.81,207.45V193.62a2.1,2.1,0,0,0-.7-1.63,2.36,2.36,0,0,0-1.64-.61h-5.39v.42a3,3,0,0,1,.9,2.57v13.08h-6V193.62a2.11,2.11,0,0,0-.71-1.63,2.34,2.34,0,0,0-1.63-.61h-5.41v.42a3,3,0,0,1,.91,2.57v13.08h-8.91v4h45.37v-4Z"/><rect class="cls-4" width="675" height="270"/></svg>