<svg id="레이어_1" data-name="레이어 1" xmlns="http://www.w3.org/2000/svg" xmlns:xlink="http://www.w3.org/1999/xlink" viewBox="0 0 675 270"><defs><style>.cls-1{fill:url(#_GS_Yellow_to_Yellow_Lt_Green);}.cls-2{fill:url(#_GS_Yellow_Lt_Green_to_Lt_Green);}.cls-3{fill:url(#_GS_Jade_Lt_Blue_to_Lt_Blue);}.cls-4{fill:url(#_GS_Jade_to_Jade_Lt_Blue);}.cls-5{fill:url(#_GS_Lt_Blue_to_Blue);}.cls-6{fill:url(#_GS_Red_to_Yellow);}.cls-7{fill:url(#_GS_Lt_Green_to_Jade);}.cls-8{fill:#0068b6;}.cls-9{fill:none;}</style><linearGradient id="_GS_Yellow_to_Yellow_Lt_Green" x1="206.11" y1="101.04" x2="183.6" y2="123.56" gradientUnits="userSpaceOnUse"><stop offset="0" stop-color="#f9be00"/><stop offset="1" stop-color="#c7c300"/></linearGradient><linearGradient id="_GS_Yellow_Lt_Green_to_Lt_Green" x1="183" y1="139.99" x2="202.31" y2="159.3" gradientUnits="userSpaceOnUse"><stop offset="0" stop-color="#c7c300"/><stop offset="1" stop-color="#7fbe26"/></linearGradient><linearGradient id="_GS_Jade_Lt_Blue_to_Lt_Blue" x1="319.95" y1="125.62" x2="336.36" y2="142.03" gradientUnits="userSpaceOnUse"><stop offset="0" stop-color="#7dccf3"/><stop offset="1" stop-color="#00b1c3"/></linearGradient><linearGradient id="_GS_Jade_to_Jade_Lt_Blue" x1="339.61" y1="153.56" x2="323.03" y2="170.15" gradientUnits="userSpaceOnUse"><stop offset="0" stop-color="#00b1c3"/><stop offset="1" stop-color="#009d95"/></linearGradient><linearGradient id="_GS_Lt_Blue_to_Blue" x1="215.63" y1="135.95" x2="316.51" y2="135.95" gradientUnits="userSpaceOnUse"><stop offset="0" stop-color="#0068b6"/><stop offset="1" stop-color="#7dccf3"/></linearGradient><linearGradient id="_GS_Red_to_Yellow" x1="198.4" y1="81.35" x2="336.15" y2="81.35" gradientUnits="userSpaceOnUse"><stop offset="0" stop-color="#f9be00"/><stop offset="0.64" stop-color="#ef7f00"/><stop offset="1" stop-color="#ea6000"/></linearGradient><linearGradient id="_GS_Lt_Green_to_Jade" x1="202.94" y1="185.38" x2="318.55" y2="185.38" gradientUnits="userSpaceOnUse"><stop offset="0" stop-color="#7fbe26"/><stop offset="1" stop-color="#009d95"/></linearGradient></defs><path class="cls-1" d="M203.91,99l-5.51-6.08a76.73,76.73,0,0,0-10.59,38.52h3.8C191.63,118.69,196.05,107.11,203.91,99Z"/><path class="cls-2" d="M202.93,158.66c-6.9-6.53-11.32-15.38-11.32-27.18v-.07h-3.8c0,13.84,2.47,26.7,7.34,37.92Z"/><path class="cls-3" d="M323.84,121.6l-7.06,7.29c9.77.14,15.78,7.68,15.57,17.31h3.8C336.15,136.7,331.7,128.06,323.84,121.6Z"/><path class="cls-4" d="M336.15,146.2h-3.8c-.19,7.92-4.42,14.57-13.81,19.51l9.91,13.65C333.29,170.42,336.15,159.47,336.15,146.2Z"/><path class="cls-5" d="M207.88,120.32a25,25,0,0,0-.42,4.54c0,22.69,16.9,37.17,38.25,37.17,40.58,0,52.62-33.15,70.79-33.15h.28l7.06-7.29c-8.77-7.22-21.77-11.74-37.55-11.74-32.13,0-49.24,26.83-63.83,26.83-6.34,0-11.2-7-11.2-13.72a19.32,19.32,0,0,1,.12-2Z"/><path class="cls-6" d="M233,87.05c23.45,0,39.73,17.74,60.65,17.74,25.09,0,39-12.22,42.47-36.11l-3.8-.63C331.29,74.38,327.16,82,319.77,82c-7,0-14.37-6.12-25.14-12-10.78-6.12-23.14-12-38.57-12-24.82,0-45.75,14.62-57.66,35L203.91,99C211,91.59,221,87.05,233,87.05Z"/><path class="cls-7" d="M257.54,175.34c-18.16,0-41.13-3.93-54.61-16.68l-7.78,10.67c11.19,25.74,35.07,42.76,70.84,42.76,23.65,0,49.81-9.36,62.46-32.73l-9.91-13.65C306.89,171.84,287.27,175.34,257.54,175.34Z"/><path class="cls-8" d="M398.49,173.27C375,173.27,362,157.84,362,135s14.05-38.51,36.9-38.51A45.8,45.8,0,0,1,421.55,102l-2.47,16c-5.58-3.53-12.12-6.31-19.74-6.31-12.76,0-19,9.43-19,23.26s6.43,23.71,19.19,23.71a19.57,19.57,0,0,0,10-2.36V143H396.66l-2.15-13.63h31v36a48.66,48.66,0,0,1-27,7.82"/><path class="cls-8" d="M460.7,172.74a60.73,60.73,0,0,1-25.85-5.57l2.67-15.66c7.62,4.08,16.1,6.87,23.49,6.87,5.26,0,8.91-2.26,8.91-6.65,0-4.19-2.15-6.12-12.56-10.09-14.79-5.69-21.23-10.51-21.23-22.74,0-14.26,11.15-21.87,25.31-21.87,9.67,0,15.88,1.82,22.31,4.93L481,117.4c-6.64-3.86-13.63-6-19.31-6s-8.26,2.34-8.26,5.78c0,3.75,2,5.58,11.26,9.12,16.11,5.89,22.53,11.47,22.53,23.27,0,16.09-11.8,23.16-26.49,23.16"/><rect class="cls-9" width="675" height="270"/></svg>