<svg id="레이어_1" data-name="레이어 1" xmlns="http://www.w3.org/2000/svg" viewBox="0 0 675 270"><defs><style>.cls-1{fill:#231c1d;}.cls-2{fill:none;}</style></defs><polygon class="cls-1" points="113.8 103.92 127.55 103.92 127.71 103.92 127.71 104.08 127.71 131 134.53 131 134.53 104.08 134.53 103.92 134.69 103.92 148.45 103.92 148.45 98.64 113.8 98.64 113.8 103.92"/><path class="cls-1" d="M77.84,98.64,62.94,131h6.88l3.64-8.11.05-.1H89.17l0,.1L92.86,131h7L84.93,98.64Zm9,18.87H75.88l.1-.23,5.21-11.62.15-.33.15.33,5.21,11.62Z"/><polygon class="cls-1" points="186.23 131 192.77 131 192.82 131 204.01 98.64 197.14 98.64 189.66 121.61 189.5 122.07 189.35 121.61 181.87 98.64 175.06 98.64 167.57 121.61 167.42 122.07 167.27 121.61 159.78 98.64 152.91 98.64 164.1 131 164.15 131 170.69 131 170.73 131 178.31 108.79 178.46 108.34 178.61 108.79 186.19 131 186.23 131"/><path class="cls-1" d="M212.18,127.48a20.35,20.35,0,0,0,26.28,0,16.56,16.56,0,0,0,5.63-12.55,17.54,17.54,0,0,0-4.84-12.06,18.78,18.78,0,0,0-13.94-5.52c-7.13,0-11.51,3-13.93,5.52a17.58,17.58,0,0,0-4.83,12.06A16.56,16.56,0,0,0,212.18,127.48Zm13.13-24.38c5.81,0,12,4.75,12,11.83a11.38,11.38,0,0,1-3.51,8.17,12.21,12.21,0,0,1-17,0,11.41,11.41,0,0,1-3.5-8.17C213.31,107.85,219.52,103.1,225.31,103.1Z"/><polygon class="cls-1" points="476.18 125.6 476.18 125.44 476.18 98.64 469.65 98.64 469.65 131 497.7 131 497.7 125.6 476.34 125.6 476.18 125.6"/><polygon class="cls-1" points="404.28 125.72 383.69 125.72 383.54 125.72 383.54 125.56 383.54 116.64 383.54 116.48 383.69 116.48 403.07 116.48 403.07 111.2 383.69 111.2 383.54 111.2 383.54 111.04 383.54 103.99 383.54 103.83 383.69 103.83 403.68 103.83 403.68 98.54 377.01 98.54 377.01 131 404.28 131 404.28 125.72"/><polygon class="cls-1" points="591.47 125.72 591.31 125.72 591.31 125.56 591.31 116.64 591.31 116.48 591.47 116.48 610.85 116.48 610.85 111.2 591.47 111.2 591.31 111.2 591.31 111.04 591.31 103.99 591.31 103.83 591.47 103.83 611.46 103.83 611.46 98.54 584.78 98.54 584.78 131 612.06 131 612.06 125.72 591.47 125.72"/><path class="cls-1" d="M562.25,126.56h-.1c-6.7,0-12.4-5.4-12.45-11.7a11.39,11.39,0,0,1,3.33-8.22,12.45,12.45,0,0,1,8.93-3.57h.09a16.29,16.29,0,0,1,11.6,4.86l3.17-5A22.52,22.52,0,0,0,562,97.32a20.74,20.74,0,0,0-12.59,4.55A16.47,16.47,0,0,0,543,115c0,10.7,9.26,16.78,18.4,17.26a20.91,20.91,0,0,0,15.68-5.88l-3.39-4.91A15,15,0,0,1,562.25,126.56Z"/><path class="cls-1" d="M437.4,120.46h11.34c3.93,0,6.92-.65,9.15-2,3-1.78,4.46-4.8,4.46-9s-1.46-7.22-4.34-9c-2.18-1.34-5.2-2-9.22-2H430.42v32.52h7Zm0-16.46h12.26a6.51,6.51,0,0,1,4,1.32,5.16,5.16,0,0,1,1.91,4.19c0,3.62-3,5.51-5.91,5.51H437.4Z"/><polygon class="cls-1" points="361.56 108.49 361.6 108.42 361.69 108.42 361.84 108.42 362 108.42 362 108.58 362 131 368.53 131 368.53 98.64 360.28 98.64 350.04 115.96 349.9 116.19 349.77 115.96 339.5 98.64 331.28 98.64 331.28 131 337.81 131 337.81 108.58 337.81 108.42 337.97 108.42 338.12 108.42 338.2 108.42 338.25 108.49 348.11 124.67 351.7 124.67 361.56 108.49"/><path class="cls-1" d="M265.71,126.84h-.42c-6.75-.13-12.3-4.48-13.23-5.26l-2.47,5.61a30.06,30.06,0,0,0,15.77,5.11c5.74,0,10.17-1.43,12.81-4.14a9,9,0,0,0,2.58-6.7c-.1-4.54-3-7.29-9.05-8.64-1.33-.29-3.56-.75-5.53-1.16l-2.82-.58c-3.12-.65-6.17-1.49-6.21-3.85,0-2.08,2.26-4.23,6.69-4.33h.41a21.79,21.79,0,0,1,13.5,5.05l2.67-5.22c-3.73-2.61-8.33-5.36-15.7-5.36-4.49,0-9.08,1.73-11.69,4.41a8.53,8.53,0,0,0-2.55,6.36c.18,6.88,8,8.76,16.62,10.21h0c3.39.57,6.89,1.15,7,3.9a3.12,3.12,0,0,1-1,2.34C271.77,126,269.06,126.84,265.71,126.84Z"/><path class="cls-1" d="M518.58,98.64,503.68,131h6.88l3.64-8.11,0-.1h15.67l0,.1,3.64,8.11h7l-14.9-32.36Zm9,18.87H516.61l.11-.23,5.21-11.62.15-.33.14.33,5.22,11.62Z"/><path class="cls-1" d="M319.29,102.87a18.78,18.78,0,0,0-13.94-5.52c-7.14,0-11.52,3-13.94,5.52a17.61,17.61,0,0,0-4.82,12.06,16.59,16.59,0,0,0,5.62,12.55,20.35,20.35,0,0,0,26.28,0,16.56,16.56,0,0,0,5.63-12.55A17.58,17.58,0,0,0,319.29,102.87Zm-5.43,20.23a12.22,12.22,0,0,1-17,0,11.4,11.4,0,0,1-3.49-8.17c0-7.08,6.2-11.83,12-11.83s12,4.75,12,11.83A11.37,11.37,0,0,1,313.86,123.1Z"/><path class="cls-1" d="M194.82,151.57c-6.21,0-10.73,4.44-10.73,10.56s4.52,10.55,10.73,10.55a10.07,10.07,0,0,0,8.41-4.12l.14-.2-3-2.18,0,0-.14.21a6.34,6.34,0,0,1-5.37,2.74,7,7,0,0,1,0-13.95,6.4,6.4,0,0,1,5.38,2.76l.14.2,3.06-2,0,0-.13-.2A9.81,9.81,0,0,0,194.82,151.57Z"/><path class="cls-1" d="M217.47,151.57c-6.22,0-10.73,4.44-10.73,10.56s4.51,10.55,10.73,10.55,10.73-4.44,10.73-10.55S223.68,151.57,217.47,151.57Zm0,17.53a7,7,0,1,1,6.84-7A6.61,6.61,0,0,1,217.47,169.1Z"/><polygon class="cls-1" points="233.08 172.32 236.81 172.32 236.81 163.82 247.2 163.82 247.2 160.29 236.81 160.29 236.81 155.47 247.86 155.47 247.86 151.94 233.08 151.94 233.08 172.32"/><polygon class="cls-1" points="252.74 172.32 256.47 172.32 256.47 163.82 266.86 163.82 266.86 160.29 256.47 160.29 256.47 155.47 267.52 155.47 267.52 151.94 252.74 151.94 252.74 172.32"/><polygon class="cls-1" points="276.14 163.81 286.6 163.81 286.6 160.3 276.14 160.3 276.14 155.45 287.31 155.45 287.31 151.94 272.4 151.94 272.4 172.32 287.82 172.32 287.82 168.81 276.14 168.81 276.14 163.81"/><polygon class="cls-1" points="296.66 163.81 307.12 163.81 307.12 160.3 296.66 160.3 296.66 155.45 307.83 155.45 307.83 151.94 292.92 151.94 292.92 172.32 308.34 172.32 308.34 168.81 296.66 168.81 296.66 163.81"/><path class="cls-1" d="M335.07,167.21l.39-.59,2.63-4.1,0-.05-2.81-1.74,0,0-2.73,4.19-3.27-3.12c1.9-1.42,3.65-3,3.65-5.29,0-2.94-2.31-4.91-5.75-4.91s-5.78,2.11-5.78,5c0,2,.94,3.39,2.57,5-1.61,1.25-3.43,3-3.43,5.56,0,3.44,2.35,5.49,6.28,5.49a8.11,8.11,0,0,0,6.06-2.61l2.36,2.24v0h5l-5.26-5Zm-7.9-12.32c1.31,0,2.06.64,2.06,1.74s-1.12,2-2.35,2.87c-1.43-1.39-1.76-1.91-1.76-2.73A1.8,1.8,0,0,1,327.17,154.89ZM327,169.38c-1.64,0-2.74-.93-2.74-2.3s1.12-2.37,2.11-3.17l4.06,3.85A4.31,4.31,0,0,1,327,169.38Z"/><path class="cls-1" d="M357.8,151.94h-8.19v20.38h8.19c6.37,0,10.64-4.1,10.64-10.19S364.17,151.94,357.8,151.94Zm0,16.84h-4.46V155.47h4.46c4.3,0,6.76,2.43,6.76,6.66S362,168.78,357.8,168.78Z"/><polygon class="cls-1" points="377.06 163.81 387.52 163.81 387.52 160.3 377.06 160.3 377.06 155.45 388.24 155.45 388.24 151.94 373.33 151.94 373.33 172.32 388.75 172.32 388.75 168.81 377.06 168.81 377.06 163.81"/><path class="cls-1" d="M402.66,160.44l-1.38-.18c-2.84-.4-3.94-1.08-3.94-2.41,0-1.65,1.67-2.72,4.25-2.72a10.1,10.1,0,0,1,5.48,1.67l.21.14,1.88-3,0,0-.21-.14a12.93,12.93,0,0,0-7.36-2.18c-4.87,0-8.14,2.59-8.14,6.45,0,4,3.34,5.36,6.14,5.74l1.56.22c3,.4,4.29,1.13,4.29,2.43,0,1.59-1.82,2.69-4.43,2.69a9.94,9.94,0,0,1-6.1-2.12l-.21-.19-2,2.93,0,.05.17.14a13.29,13.29,0,0,0,8.21,2.73c5.71,0,8.27-3.27,8.27-6.51S407.08,161,402.66,160.44Z"/><path class="cls-1" d="M423,160.44l-1.39-.18c-2.83-.4-3.94-1.08-3.94-2.41,0-1.65,1.67-2.72,4.25-2.72a10.07,10.07,0,0,1,5.48,1.67l.21.14,1.88-3,0,0-.2-.14A12.94,12.94,0,0,0,422,151.6c-4.87,0-8.14,2.59-8.14,6.45,0,4,3.34,5.36,6.15,5.74l1.55.22c3,.4,4.29,1.13,4.29,2.43,0,1.59-1.82,2.69-4.42,2.69A10,10,0,0,1,415.3,167l-.21-.19-2,2.93,0,.05.17.14a13.29,13.29,0,0,0,8.21,2.73c5.71,0,8.27-3.27,8.27-6.51S427.45,161,423,160.44Z"/><polygon class="cls-1" points="438.31 163.81 448.77 163.81 448.77 160.3 438.31 160.3 438.31 155.45 449.48 155.45 449.48 151.94 434.57 151.94 434.57 172.32 449.99 172.32 449.99 168.81 438.31 168.81 438.31 163.81"/><path class="cls-1" d="M470.91,157.94c0-3.87-2.6-6-7.33-6h-8.49v20.38h3.73V164h3.06l5.28,8.34,0,0h4.29l-5.65-8.59C469,163.05,470.91,160.88,470.91,157.94Zm-12.09,2.6v-5.09h4.67c2.43,0,3.57.79,3.57,2.49s-1.14,2.6-3.57,2.6Z"/><polygon class="cls-1" points="474.23 155.47 480.7 155.47 480.7 172.32 484.43 172.32 484.43 155.47 490.91 155.47 490.91 151.94 474.23 151.94 474.23 155.47"/><rect class="cls-2" width="675" height="270"/></svg>