<svg id="레이어_1" data-name="레이어 1" xmlns="http://www.w3.org/2000/svg" viewBox="0 0 675 270"><defs><style>.cls-1{fill:#231815;}.cls-2{fill:none;}</style></defs><path class="cls-1" d="M201.9,90.63a44.37,44.37,0,1,0,44.28,44.46A44.38,44.38,0,0,0,201.9,90.63Zm14.89,39.13v13.42a17.36,17.36,0,0,1-1.47,6.61,10.94,10.94,0,0,1-1.66,2.76,24.88,24.88,0,0,1-4.41,4.41,21.06,21.06,0,0,1-2.75,1.47,16.62,16.62,0,0,1-3.13.92,20.56,20.56,0,0,1-3.3.36A16.78,16.78,0,0,1,183.35,143h3.3a13.33,13.33,0,0,0,26.64,0V130H183.35v-3.31h15.06l14.7-14.7,1.1-1.1h2.39v16h3.68l.18,3.13h-3.67Z"/><polygon class="cls-1" points="213.29 126.46 213.29 116.53 203.37 126.46 213.29 126.46"/><polygon class="cls-1" points="308.47 119.84 305.71 130.68 312.33 128.48 305.35 156.04 316.37 156.04 327.21 112.86 308.47 119.84"/><path class="cls-1" d="M357.71,133.25h0a14.75,14.75,0,0,0,7.72-9.18c1.65-6.43-2.76-11-10.48-11H335.66l-10.84,43h19.85c7.9,0,15.25-5.33,17.08-12.31C362.86,139.13,361.2,135.28,357.71,133.25Zm-7.35,9.19a5,5,0,0,1-5.14,3.86h-6.43l2-7.9h6.43C349.63,138.58,350.91,140.05,350.36,142.44Zm3.49-16.35a5,5,0,0,1-5,3.67h-6.06l1.84-7.53h6.06c2.39,0,3.67,1.47,3.12,3.86Z"/><polygon class="cls-1" points="379.21 139.32 393.36 139.32 395.74 129.58 381.78 129.58 383.25 123.33 399.05 123.33 401.62 113.04 374.06 113.04 363.22 156.04 391.33 156.04 393.91 145.75 377.56 145.75 379.21 139.32"/><path class="cls-1" d="M422.2,113l-27.74,43h12.68l4.22-7h15.25l.55,7h13l-6.62-43Zm-5.69,26.83,8.08-13.41,1.47,13.41Z"/><polygon class="cls-1" points="480.81 113.04 445.54 113.04 442.78 123.7 454.54 123.7 446.46 156.04 458.21 156.04 466.48 123.7 478.06 123.7 480.81 113.04"/><polygon class="cls-1" points="517.56 113.04 485.41 113.04 482.47 124.07 497.35 124.07 473.46 156.04 507.46 156.04 510.21 145.01 493.68 145.01 517.56 113.04"/><path class="cls-1" d="M299.65,112.86H279.26v9.74H290.1l-4.6,18a6.44,6.44,0,0,1-6.06,5.33c-2.94,0-4.41-2-3.49-5.33l.37-1.1H264.37l-.36,1.66c-2.39,9.37,2.94,15.8,12.86,15.8a20.89,20.89,0,0,0,20.58-15.8l7-28.3Z"/><rect class="cls-2" width="675" height="270"/></svg>