<svg id="레이어_1" data-name="레이어 1" xmlns="http://www.w3.org/2000/svg" xmlns:xlink="http://www.w3.org/1999/xlink" viewBox="0 0 675 270"><defs><style>.cls-1,.cls-2,.cls-3{fill:none;}.cls-1,.cls-2{clip-rule:evenodd;}.cls-2{clip-path:url(#clip-path);}.cls-4{clip-path:url(#clip-path-2);}.cls-5{clip-path:url(#clip-path-3);}.cls-6{fill:#2c1b3b;}.cls-7{fill:#1b2e5a;}.cls-8{fill:#d93f85;}.cls-9{fill:#212121;}</style><clipPath id="clip-path"><polygon class="cls-1" points="154.69 175.6 520.32 175.6 520.32 94.39 154.69 94.39 154.69 175.6 154.69 175.6"/></clipPath><clipPath id="clip-path-2"><polygon class="cls-2" points="154.69 94.39 520.32 94.39 520.32 175.6 154.69 175.6 154.69 94.39 154.69 94.39"/></clipPath><clipPath id="clip-path-3"><polygon class="cls-3" points="154.69 175.6 520.32 175.6 520.32 94.39 154.69 94.39 154.69 175.6 154.69 175.6"/></clipPath></defs><g class="cls-4"><g class="cls-5"><path class="cls-6" d="M220.42,137v30.6h-6l-6.16,7.7h19.94V127.26l-7.8,9.78Zm0-20.33,7.8-9.78h0l-7.8,9.78Zm-64-12.19v39.57l7.81-9.77v-22.1h55.88l6.17-7.7Z"/><polygon class="cls-6" points="182.72 131.48 164.21 154.65 156.4 164.42 156.4 148.99 161.69 142.37 164.21 139.21 175.1 125.57 182.72 131.48 182.72 131.48"/><polygon class="cls-6" points="193.49 141.97 193.5 141.97 172.99 167.63 166.84 175.34 156.4 175.34 156.4 172.96 161.6 166.45 161.6 166.45 164.21 163.19 194.26 125.57 201.86 131.48 193.49 141.97 193.49 141.97"/><polygon class="cls-7" points="230.09 104.59 229.73 105.06 228.22 106.93 220.42 116.71 228.22 106.93 229.73 105.04 230.09 104.59 230.09 104.59 230.09 104.59"/><polygon class="cls-8" points="243.48 96.33 242.18 114.72 237.33 110.97 185.9 175.34 173.56 175.34 229.73 105.06 229.73 105.04 225.66 101.89 243.48 96.33 243.48 96.33"/><polygon class="cls-7" points="161.69 142.37 156.4 148.99 156.4 148.97 161.69 142.37 161.69 142.37"/><polygon class="cls-6" points="204.44 175.34 211.22 166.85 211.22 166.85 219.59 156.37 211.98 150.46 192.1 175.34 204.44 175.34 204.44 175.34"/><polygon class="cls-9" points="279.07 128.8 279.07 135.01 262.09 135.01 262.09 142.66 276.33 142.66 276.33 148.87 262.09 148.87 262.09 163.44 253.24 163.44 253.24 128.8 279.07 128.8 279.07 128.8 279.07 128.8"/><path class="cls-9" d="M285,147v-1.77c0-12,5.19-17,16.22-17s16.26,5,16.26,17V147c0,12-5.19,17-16.26,17S285,159,285,147Zm16.49,9.44c5.46,0,7-2.51,7-9.44v-1.77c0-6.94-1.53-9.44-7-9.44H301c-5.46,0-7,2.52-7,9.44V147c0,6.94,1.57,9.44,7,9.44Z"/><path class="cls-9" d="M339.41,128.8c6.66,0,13.7,1.47,13.7,9.6v.9a6.55,6.55,0,0,1-4.15,6.26c3.07,1.2,5.24,3.33,5.24,7.06v.89c0,8.45-7.48,10-14.36,10H325.42V128.8ZM333.6,135v7.59h5.76c2.29,0,4.81-.65,4.81-3.51v-.57c0-2.84-2.52-3.51-4.81-3.51Zm0,13.86v8.35h6.51c2.45,0,5.14-.84,5.14-4v-.4c0-3.16-2.67-4-5.14-4Z"/><polygon class="cls-9" points="362.61 163.46 362.61 128.8 371.46 128.8 371.46 157.23 387.18 157.23 387.18 163.44 362.61 163.44 362.61 163.46 362.61 163.46"/><path class="cls-9" d="M393.84,147v-1.77c0-12,5.24-16.93,15-16.93,9.13,0,13.54,4.05,13.54,11.87v1.25h-4c0-7.16-2.67-9.07-9.22-9.07h-.33c-7.21,0-10.87,3-10.87,12.88V147c0,9.86,3.49,13.17,11.3,13.17h.38c4.31,0,7.26-1.15,8.78-2.48v-8.46h-7.31v-2.83h11.25v13.16a.79.79,0,0,1-.31.63c-2.33,1.87-6.22,3.75-12.69,3.75-10.25,0-15.49-4.93-15.49-16.94Z"/><path class="cls-9" d="M447.68,128.44l12.28,35H455.7l-3.07-8.88H437.07L434,163.46h-4.26l12.28-35Zm-9.62,23.25H451.6L444.84,132l-6.78,19.74Z"/><polygon class="cls-9" points="477.44 163.46 473.5 163.46 473.5 131.68 462.7 131.68 462.7 128.8 488.31 128.8 488.31 131.68 477.44 131.68 477.44 163.46 477.44 163.46 477.44 163.46"/><polygon class="cls-9" points="520.07 128.8 520.07 131.68 500.25 131.68 500.25 144.35 517.33 144.35 517.33 147.18 500.25 147.18 500.25 160.55 520.07 160.55 520.07 163.44 496.32 163.44 496.32 128.8 520.07 128.8 520.07 128.8 520.07 128.8"/></g></g><rect class="cls-3" width="675" height="270"/></svg>