<svg id="레이어_1" data-name="레이어 1" xmlns="http://www.w3.org/2000/svg" viewBox="0 0 675 270"><defs><style>.cls-1{fill:#003668;}.cls-2{fill:#e6002d;}.cls-3{fill:#595757;}.cls-4{fill:none;}</style></defs><path class="cls-1" d="M246.41,132.74c-8.62-5.86-19.66-3.47-25.45,5.34a17.91,17.91,0,0,1-32.37-4.92h0l-.05-.19c0-.07,0-.15-.06-.23a23.11,23.11,0,0,1-.91-7.11c0-16,16.46-33.92,40.18-33.92,24.28,0,38.17,18.49,41.76,28.76-.07-.17-.12-.36-.19-.54a51.14,51.14,0,0,0-99.51,16.59c0,25.24,18.2,46.85,43.46,46.85,20.14,0,33.68-11.29,39.89-26.86,3.41-8.51,1-18.51-6.74-23.77"/><path class="cls-2" d="M269.81,121.47c-3-10-17-29.76-42.07-29.76-23.72,0-40.18,17.87-40.18,33.92a23.11,23.11,0,0,0,.91,7.11,14.86,14.86,0,0,1-.47-3.65c0-16.71,16.74-28.29,33.94-28.29A42.17,42.17,0,0,1,264.1,143a46.47,46.47,0,0,1-25.77,41.64v0a51.16,51.16,0,0,0,33.72-48.1,50.4,50.4,0,0,0-2.25-15.05"/><path class="cls-3" d="M331.72,142.82v14.25h-5.09v-9.8H299.74v-4.45h13.7v-6H297.17v-4.44h37.57v4.44H318.48v6Zm0-25.88v12.19h-5.09v-7.7H300.2v-4.49Z"/><polygon class="cls-3" points="374.56 142.09 361.27 142.09 361.27 149.51 377.54 149.51 377.54 153.96 339.97 153.96 339.97 149.51 356.18 149.51 356.18 142.09 342.99 142.09 342.99 118.18 374.46 118.18 374.46 122.62 347.98 122.62 347.98 127.93 374.46 127.93 374.46 132.29 347.98 132.29 347.98 137.65 374.56 137.65 374.56 142.09"/><path class="cls-3" d="M391.69,149.51V136.82h4.81v12.69h6.83V136.82h4.85v12.69h12.14V154H382.76v-4.45Zm20.52-7.19V122.71H385.78v-4.54H417.3v24.15Z"/><path class="cls-3" d="M462.65,139.48H425.08v-4.17h16.26v-2.66H428.1V116.57h31.47v4.17H433.05v2h26.52v3.8H433.05v2.06h26.62v4H446.34v2.66h16.31Zm-8.76,10a8.39,8.39,0,0,1-.79,3.62,9.51,9.51,0,0,1-2.14,2.93,10.34,10.34,0,0,1-3.16,2,9.64,9.64,0,0,1-3.84.76,9.87,9.87,0,0,1-3.88-.76,10.44,10.44,0,0,1-3.18-2,9.33,9.33,0,0,1-2.13-2.93,8.26,8.26,0,0,1-.8-3.62,8.1,8.1,0,0,1,.8-3.59A9.36,9.36,0,0,1,436.9,143a10.44,10.44,0,0,1,3.18-2,9.87,9.87,0,0,1,3.88-.76,9.64,9.64,0,0,1,3.84.76,10.34,10.34,0,0,1,3.16,2,9.55,9.55,0,0,1,2.14,2.91,8.23,8.23,0,0,1,.79,3.59m-4.89,0a4.9,4.9,0,0,0-1.47-3.55,4.8,4.8,0,0,0-3.57-1.49,4.87,4.87,0,0,0-3.6,1.49,5,5,0,0,0,0,7.08,5,5,0,0,0,3.6,1.46,5,5,0,0,0,5-5"/><path class="cls-3" d="M467.64,141.92H505.2v4.49H488.94V157h-5.09V146.41H467.64Zm8-20h21.49v-5.18h5v19.66H470.66V116.77h5Zm21.49,4.4H475.65V132h21.49Z"/><rect class="cls-4" width="675" height="270"/></svg>