<svg xmlns="http://www.w3.org/2000/svg" viewBox="0 0 675 270"><defs><style>.cls-1{isolation:isolate;}.cls-2{fill:#a6a8ab;}.cls-3{fill:#f05a21;}.cls-4{fill:#f6921d;}.cls-5{fill:#8bc53f;}.cls-5,.cls-6{mix-blend-mode:multiply;}.cls-6{fill:#009dda;}.cls-7{fill:#4c4c4e;}.cls-8{fill:none;}</style></defs><g class="cls-1"><g id="레이어_1" data-name="레이어 1"><path class="cls-2" d="M476.66,122.73h0c-2.69,12.53-8.7,32.42-8.68,41.68.05,9.62,2,14.39,4.77,16.42a7.16,7.16,0,0,0,4.39,1.31c5,0,9.06-3.7,9-17.79,0-9.27-6.65-29.09-9.46-41.62"/><path class="cls-2" d="M476.66,122.56c2.73-12.57,9.18-32.43,9.13-41.68-.05-14.1-4.12-17.76-9.14-17.75s-9.07,3.73-9,17.82c0,9.25,6.2,29.07,9,41.6Z"/><path class="cls-3" d="M482,135.57l0,0c5.2,11.71,12,31.33,17.5,38.81,5.68,7.76,10,10.47,13.51,10.47a7.21,7.21,0,0,0,4.32-1.53c4-3,5.16-8.33-3.18-19.69-5.46-7.48-22.48-19.62-32.12-28.09"/><path class="cls-4" d="M481.86,135.43c-5.19-11.75-11.66-31.62-17.14-39.09-8.32-11.36-13.78-11.93-17.83-9s-5.14,8.34,3.19,19.72c5.47,7.46,22.12,19.86,31.75,28.35Z"/><path class="cls-5" d="M429,113.36l0,0c9,9.17,22.25,25.16,30,30.25,8,5.28,13.08,6.3,16.33,5.09a7.24,7.24,0,0,0,3.5-2.94c2.75-4.19,1.92-9.6-9.85-17.34C461.2,123.36,441,117.93,429,113.36"/><path class="cls-6" d="M428.88,113.26c-9-9.21-22-25.56-29.72-30.63-11.78-7.74-17.08-6.36-19.85-2.16s-1.89,9.61,9.88,17.35c7.74,5.08,27.67,10.88,39.66,15.46Z"/><path class="cls-7" d="M338.83,153.25c-.82,0-1.21,2.09-3.79,4.45-3,2.77-5.74,3.83-11.81,6-6.76,2.37-9,5.32-11.1,9.49a12,12,0,0,0-1.22,6.51c.13.76.27,1.55.79,1.4.7-.22,2.7-7.19,9.34-7.64,3.1-.21,7,.92,8.39,5.65a9.17,9.17,0,0,1,.31,2.07c.81,9.82-8.81,19.05-20.42,18.57-8.66-.38-18.07-5.88-19.59-16.17C288.45,175,292,166,297.94,162.8c.84.24,1.93.52,3.16.77a17.61,17.61,0,0,0,6.49.15c2-.34,4.41-1.56,4.15-3.46-.41-2.77-4.9-3.15-7.24-3.12a22.47,22.47,0,0,0-5.36.66,10.54,10.54,0,0,1-3.73-5.86c-1.59-5.53,1.52-14.86,10.5-15.79a12.46,12.46,0,0,1,11.76,4.75c2.35,3,3.15,4.09,3.74,3.88.44-.15.62-.48.67-1.44l0-5.67a9.61,9.61,0,0,0-.23-1.75c-.83-3.34-8.74-6.84-17.21-6.44a25.12,25.12,0,0,0-8.55,1.73A17.18,17.18,0,0,0,284.2,149.7a14.46,14.46,0,0,0,6.53,10c-9.84,3.83-17.76,14.41-14.3,28.2s19.08,18.79,29.61,19c11.63.25,19.93-4.31,25-9.77a21.74,21.74,0,0,0,5.79-17.6c-.34-2.22-2.07-7.19-5.9-9.55a15.13,15.13,0,0,0,3.56-1.83,12.75,12.75,0,0,0,5.27-8.59,11.63,11.63,0,0,0-.47-6S339.11,153.25,338.83,153.25Z"/><path class="cls-7" d="M371.68,199.76c6.54,0,28.72,0,28.75,0,9.32,0,18.8-4.86,19.54-17.29.75-12.74-7-17.56-16.65-17.56H390.38c-3.44,0-5.35.1-7.5,3.83l-4.27,8h17.05c4,0,5.75,2.65,5.75,5.71s-1.81,5.42-5.64,5.42H380.2c-4.35,0-8.19-1.45-10.74-4.6-2.06-2.56-3.88-5.91-3.88-11.84,0-6.36,2-9.08,3.88-11.49,2.26-2.84,5.87-3.89,9.25-4.24l1.56-.06h28v0c3.43,0,5.36-.09,7.5-3.82l4.22-8H372.21c-14.95,0-25.81,12-25.81,28,0,14.35,8.69,25.7,21.49,27.69A21.05,21.05,0,0,0,371.68,199.76Z"/><path class="cls-7" d="M233.08,160.63c0-5.09-4.21-4.95-4.21-4.95H206.71l-13.14,12.43,25.5,31.67H201.62c-6.48,0-8.82-3.13-12.41-7.9h0l-12.16-16.12a1.82,1.82,0,0,0-2.11-.62,1.45,1.45,0,0,0-.93,1.28v23.36H154.66V143.85H174v23.71L193.83,148a12.87,12.87,0,0,1,5.33-3.47,18.84,18.84,0,0,1,5-.65h74.78l-4.25,8c-2.05,3.55-3.9,3.79-7.05,3.81H251.93v44.1H233.08Z"/><rect class="cls-8" width="675" height="270"/></g></g></svg>